<?xml version="1.0" standalone="no"?>
<!DOCTYPE svg PUBLIC "-//W3C//DTD SVG 1.1//EN" "http://www.w3.org/Graphics/SVG/1.1/DTD/svg11.dtd">
<svg xmlns="http://www.w3.org/2000/svg">
<metadata>Copyright (C) 2018 by original authors @ fontello.com</metadata>
<defs>
<font id="waf-icon-font" horiz-adv-x="1000" >
<font-face font-family="waf-icon-font" font-weight="400" font-stretch="normal" units-per-em="1000" ascent="850" descent="-150" />
<missing-glyph horiz-adv-x="1000" />
<glyph glyph-name="user" unicode="&#xe800;" d="M714 69q0-60-35-104t-84-44h-476q-49 0-84 44t-35 104q0 48 5 90t17 85 33 73 52 50 76 19q73-72 174-72t175 72q42 0 75-19t52-50 33-73 18-85 4-90z m-143 495q0-88-62-151t-152-63-151 63-63 151 63 152 151 63 152-63 62-152z" horiz-adv-x="714.3" />

<glyph glyph-name="users" unicode="&#xe801;" d="M331 350q-90-3-148-71h-75q-45 0-77 22t-31 66q0 197 69 197 4 0 25-11t54-24 66-12q38 0 75 13-3-21-3-37 0-78 45-143z m598-356q0-66-41-105t-108-39h-488q-68 0-108 39t-41 105q0 30 2 58t8 61 14 61 24 54 35 45 48 30 62 11q6 0 24-12t41-26 59-27 76-12 75 12 60 27 41 26 24 12q34 0 62-11t47-30 35-45 24-54 15-61 8-61 2-58z m-572 713q0-59-42-101t-101-42-101 42-42 101 42 101 101 42 101-42 42-101z m393-214q0-89-63-152t-151-62-152 62-63 152 63 151 152 63 151-63 63-151z m321-126q0-43-31-66t-77-22h-75q-57 68-147 71 45 65 45 143 0 16-3 37 37-13 74-13 33 0 67 12t54 24 24 11q69 0 69-197z m-71 340q0-59-42-101t-101-42-101 42-42 101 42 101 101 42 101-42 42-101z" horiz-adv-x="1071.4" />

<glyph glyph-name="down-open" unicode="&#xe802;" d="M564 422l-234-224q-18-18-40-18t-40 18l-234 224q-16 16-16 41t16 41q38 38 78 0l196-188 196 188q40 38 78 0 16-16 16-41t-16-41z" horiz-adv-x="580" />

<glyph glyph-name="left-open" unicode="&#xe803;" d="M242 626q14 16 39 16t41-16q38-36 0-80l-186-196 186-194q38-44 0-80-16-16-40-16t-40 16l-226 236q-16 16-16 38 0 24 16 40 206 214 226 236z" horiz-adv-x="341" />

<glyph glyph-name="right-open" unicode="&#xe804;" d="M98 626l226-236q16-16 16-40 0-22-16-38l-226-236q-16-16-40-16t-40 16q-36 36 0 80l186 194-186 196q-36 44 0 80 16 16 41 16t39-16z" horiz-adv-x="340" />

<glyph glyph-name="up-open" unicode="&#xe805;" d="M564 280q16-16 16-41t-16-41q-38-38-78 0l-196 188-196-188q-40-38-78 0-16 16-16 41t16 41l234 224q16 16 40 16t40-16z" horiz-adv-x="580" />

<glyph glyph-name="down-open-mini" unicode="&#xe806;" d="M405 470q22 26 48 0 26-22 0-48l-196-192q-22-22-48 0l-196 192q-26 26 0 48 24 24 50 0l170-156z" horiz-adv-x="466" />

<glyph glyph-name="left-open-mini" unicode="&#xe807;" d="M252 180q26-26 0-48-26-26-48 0l-192 194q-24 24 0 50l192 194q22 26 48 0 26-22 0-48l-156-172z" horiz-adv-x="265" />

<glyph glyph-name="right-open-mini" unicode="&#xe808;" d="M13 180l158 170-158 172q-26 26 0 48 26 26 48 0l192-194q24-26 0-50l-192-194q-22-26-48 0-26 22 0 48z" horiz-adv-x="265" />

<glyph glyph-name="up-open-mini" unicode="&#xe809;" d="M62 230q-26-22-50 0-24 24 0 50l196 190q26 26 48 0l196-190q24-26 0-50-24-22-50 0l-170 158z" horiz-adv-x="464" />

<glyph glyph-name="down-open-big" unicode="&#xe80a;" d="M63 570l370-356 372 356q22 26 48 0 26-22 0-48l-396-392q-22-22-48 0l-396 392q-26 26 0 48 24 24 50 0z" horiz-adv-x="866" />

<glyph glyph-name="left-open-big" unicode="&#xe80b;" d="M452-20q26-26 0-48-26-26-48 0l-392 394q-24 24 0 50l392 394q22 26 48 0 26-22 0-48l-358-372z" horiz-adv-x="465" />

<glyph glyph-name="right-open-big" unicode="&#xe80c;" d="M13-20l358 370-358 372q-26 26 0 48 26 26 48 0l392-394q24-26 0-50l-392-394q-22-26-48 0-26 22 0 48z" horiz-adv-x="465" />

<glyph glyph-name="up-open-big" unicode="&#xe80d;" d="M804 130l-372 358-370-358q-26-22-50 0-24 24 0 50l396 390q26 26 48 0l396-390q24-26 0-50-26-22-48 0z" horiz-adv-x="864" />

<glyph glyph-name="search" unicode="&#xe80e;" d="M746 209l254-255-105-105-254 254q-106-72-232-72-169 0-289 120t-120 289 120 289 289 120 289-120 120-289q0-127-72-231z m-65 231q0 113-79 193t-193 80-193-80-80-193 80-192 193-80 193 80 79 192z" horiz-adv-x="1000" />

<glyph glyph-name="share" unicode="&#xe80f;" d="M650 200q62 0 106-43t44-107q0-62-44-106t-106-44-106 44-44 106q0 6 1 14t1 12l-260 156q-42-32-92-32-62 0-106 44t-44 106 44 106 106 44q54 0 92-30l260 156q0 4-1 12t-1 12q0 62 44 106t106 44 106-43 44-107q0-62-44-106t-106-44q-52 0-90 32l-262-156q2-8 2-26 0-16-2-24l262-156q36 30 90 30z" horiz-adv-x="800" />

<glyph glyph-name="play" unicode="&#xe810;" d="M486 376q14-10 14-26 0-14-14-24l-428-266q-24-16-41-6t-17 40l0 514q0 30 17 40t41-6z" horiz-adv-x="500" />

<glyph glyph-name="picture" unicode="&#xe811;" d="M357 529q0-45-31-76t-76-32-76 32-31 76 31 76 76 31 76-31 31-76z m572-215v-250h-786v107l178 179 90-89 285 285z m53 393h-893q-7 0-12-5t-6-13v-678q0-7 6-13t12-5h893q7 0 13 5t5 13v678q0 8-5 13t-13 5z m89-18v-678q0-37-26-63t-63-27h-893q-36 0-63 27t-26 63v678q0 37 26 63t63 27h893q37 0 63-27t26-63z" horiz-adv-x="1071.4" />

<glyph glyph-name="picture-1" unicode="&#xe812;" d="M856 518l-100 0-124 150-214-150-180 0q-52 0-90-39t-38-91l0-160-108 296q-10 38 22 52l680 248q36 10 50-24z m106-90q16 0 27-12t11-28l0-472q0-16-11-28t-27-12l-724 0q-16 0-27 12t-11 28l0 472q0 16 11 28t27 12l724 0z m-56-452l0 162-72 160-166-60-130-132-138 170-92-214 0-86 598 0z" horiz-adv-x="1000" />

<glyph glyph-name="calendar" unicode="&#xe813;" d="M0-66l0 738q0 35 24 60t60 24l135 0 0 63q0 13 9 22t22 9 22-9 9-22l0-63 188 0 0 63q0 13 9 22t22 9 22-9 9-22l0-63 188 0 0 63q0 13 9 22t22 9 22-9 9-22l0-63 135 0q35 0 60-24t24-60l0-738q0-35-24-60t-60-24l-832 0q-35 0-60 24t-24 60z m63 0q0-10 5-16t16-6l832 0q10 0 16 6t5 16l0 738q0 10-5 16t-16 6l-135 0 0-63q0-13-9-22t-22-9-22 9-9 22l0 63-188 0 0-63q0-13-9-22t-22-9-22 9-9 22l0 63-188 0 0-63q0-13-9-22t-22-9-22 9-9 22l0 63-135 0q-10 0-16-6t-5-16l0-738z m156 135l0 94 125 0 0-94-125 0z m0 156l0 94 125 0 0-94-125 0z m0 156l0 94 125 0 0-94-125 0z m219-312l0 94 125 0 0-94-125 0z m0 156l0 94 125 0 0-94-125 0z m0 156l0 94 125 0 0-94-125 0z m218-312l0 94 125 0 0-94-125 0z m0 156l0 94 125 0 0-94-125 0z m0 156l0 94 125 0 0-94-125 0z" horiz-adv-x="1000" />

<glyph glyph-name="calendar-1" unicode="&#xe814;" d="M71-79h161v161h-161v-161z m197 0h178v161h-178v-161z m-197 197h161v178h-161v-178z m197 0h178v178h-178v-178z m-197 214h161v161h-161v-161z m411-411h179v161h-179v-161z m-214 411h178v161h-178v-161z m428-411h161v161h-161v-161z m-214 197h179v178h-179v-178z m-196 482v161q0 7-6 12t-12 6h-36q-7 0-12-6t-6-12v-161q0-7 6-13t12-5h36q7 0 12 5t6 13z m410-482h161v178h-161v-178z m-214 214h179v161h-179v-161z m214 0h161v161h-161v-161z m18 268v161q0 7-5 12t-13 6h-35q-7 0-13-6t-5-12v-161q0-7 5-13t13-5h35q8 0 13 5t5 13z m215 36v-715q0-29-22-50t-50-21h-786q-29 0-50 21t-21 50v715q0 29 21 50t50 21h72v54q0 37 26 63t63 26h36q37 0 63-26t26-63v-54h214v54q0 37 27 63t63 26h35q37 0 64-26t26-63v-54h71q29 0 50-21t22-50z" horiz-adv-x="928.6" />

<glyph glyph-name="chart-bar" unicode="&#xe815;" d="M521 740l0-625-208 0 0 625q0 44 30 74t73 31q44 0 75-31t30-74z m260-207l0-418-208 0 0 418q0 42 30 73t75 30q42 0 73-30t30-73z m-521-157l0-261-207 0 0 261q0 43 30 73t73 31 74-31 30-73z m521-417q22 0 37-15t16-37-16-36-37-16l-728 0q-22 0-37 16t-16 36 16 37 37 15l728 0z" horiz-adv-x="834" />

<glyph glyph-name="chart-bar-1" unicode="&#xe816;" d="M180 516l0-538-180 0 0 538 180 0z m250-138l0-400-180 0 0 400 180 0z m250 344l0-744-180 0 0 744 180 0z" horiz-adv-x="680" />

<glyph glyph-name="chart-bar-outline" unicode="&#xe817;" d="M678 663q65 0 110-46t46-110l0-469-834 0 0 313q0 65 46 110t110 46q59 0 104-41l0 248q0 65 46 111t110 46 111-46 46-111l0-92q45 41 105 41z m-262 104q-21 0-36-16t-15-37l0-572 104 0 0 572q0 22-16 37t-37 16z m-207-625l0 209q0 21-16 36t-37 15-37-15-15-36l0-209 105 0z m520 0l0 365q0 21-15 36t-36 15-37-15-16-36l0-365 104 0z m52-313l-728 0q-22 0-37 16t-16 37 16 36 37 15l728 0q22 0 37-15t16-36-16-37-37-16z" horiz-adv-x="834" />

<glyph glyph-name="comment" unicode="&#xe818;" d="M1000 350q0-97-67-179t-182-130-251-48q-39 0-81 4-110-97-257-135-27-8-63-12-10-1-17 5t-10 16v1q-2 2 0 6t1 6 2 5l4 5t4 5 4 5q4 5 17 19t20 22 17 22 18 28 15 33 15 42q-88 50-138 123t-51 157q0 73 40 139t106 114 160 76 194 28q136 0 251-48t182-130 67-179z" horiz-adv-x="1000" />

<glyph glyph-name="mail" unicode="&#xe819;" d="M929 11v428q-18-20-39-36-149-115-238-189-28-24-46-37t-48-28-57-13h-2q-26 0-57 13t-48 28-46 37q-88 74-238 189-21 16-39 36v-428q0-7 6-13t12-5h822q7 0 12 5t6 13z m0 586v14t-1 7-1 7-3 5-5 4-8 2h-822q-7 0-12-6t-6-12q0-94 83-159 107-84 223-176 4-3 20-17t25-21 25-17 28-16 24-5h2q11 0 24 5t28 16 25 17 25 21 20 17q116 92 224 176 30 24 56 65t26 73z m71 21v-607q0-37-26-63t-63-27h-822q-36 0-63 27t-26 63v607q0 37 26 63t63 26h822q37 0 63-26t26-63z" horiz-adv-x="1000" />

<glyph glyph-name="right" unicode="&#xe81a;" d="M399 684q31 31 74 31t73-31l334-335-334-334q-30-30-73-30t-74 30q-31 31-31 74t31 74l82 82-377 0q-44 0-74 31t-30 73q0 44 31 74t73 31l377 0-82 82q-31 32-31 75t31 73z" horiz-adv-x="880" />

<glyph glyph-name="left" unicode="&#xe81b;" d="M776 454q43 0 73-31t31-74q0-43-30-73t-74-31l-377 0 82-82q32-30 32-74t-32-74q-30-30-73-30t-74 30l-334 334 334 335q31 31 74 31t73-31q32-30 32-73t-32-75l-82-82 377 0z" horiz-adv-x="880" />

<glyph glyph-name="down" unicode="&#xe81c;" d="M700 391q31-31 31-73t-31-74l-334-334-335 334q-31 31-31 74t31 73 74 32 74-32l82-82 0 377q0 43 31 73t74 31q43 0 73-31t31-73l0-377 83 82q31 32 73 32t74-32z" horiz-adv-x="731" />

<glyph glyph-name="up" unicode="&#xe81d;" d="M366 790l334-334q31-31 31-73t-31-74-74-31-73 31l-83 82 0-377q0-44-31-74t-73-30q-43 0-74 31t-31 73l0 377-82-82q-31-31-74-31t-74 31-31 74 31 73z" horiz-adv-x="731" />

<glyph glyph-name="lock-filled" unicode="&#xe81e;" d="M625 480q43 0 73-31t31-73l0-365q0-42-31-73t-73-31l-521 0q-44 0-74 31t-30 73l0 365q0 43 30 73t74 31l52 0 0 105q0 86 62 147t147 61 147-61 61-147l0-105 52 0z m-260-431q28 0 48 20t20 47-20 48-48 20-47-20-20-48 20-47 47-20z m104 380l0 156q0 44-31 74t-73 30q-44 0-74-31t-31-73l0-156 209 0z" horiz-adv-x="729" />

<glyph glyph-name="lock-open-filled" unicode="&#xe81f;" d="M678 793q86 0 146-61t61-147l0-156q0-21-15-37t-36-16-37 16-16 37l0 156q0 44-30 74t-73 30q-44 0-75-31t-30-73l0-105 52 0q43 0 73-31t31-73l0-365q0-42-31-73t-73-31l-521 0q-44 0-74 31t-30 73l0 365q0 43 30 73t74 31l156 0 0-51 209 0 0 156q0 86 61 147t148 61z m-313-744q28 0 48 20t20 47-20 48-48 20-47-20-20-48 20-47 47-20z" horiz-adv-x="885" />

<glyph glyph-name="lock" unicode="&#xe820;" d="M298 116q0 68 67 68t68-68-68-67-67 67z m67 677q85 0 146-62t62-146l0-105 52 0q43 0 73-31t31-73l0-365q0-42-31-73t-73-31l-521 0q-44 0-74 31t-30 73l0 365q0 43 30 73t74 31l52 0 0 105q0 60 30 107t74 73q48 28 105 28z m0-104q-44 0-74-31t-31-73l0-156 209 0 0 156q0 44-31 74t-73 30z m260-678l0 365-521 0 0-365 521 0z" horiz-adv-x="729" />

<glyph glyph-name="lock-open" unicode="&#xe821;" d="M298 116q0 68 67 68t68-68-68-67-67 67z m-298 260q0 43 30 73t74 31l156 0 0-51 209 0 0 156q0 69 35 118t92 73q38 17 82 17 85 0 146-62t61-146l0-156q0-21-15-37t-36-16-37 16-16 37l0 156q0 44-30 74t-73 30q-44 0-75-31t-30-73l0-105 52 0q43 0 73-31t31-73l0-365q0-42-31-73t-73-31l-521 0q-44 0-74 31t-30 73l0 365z m625-365l0 365-521 0 0-365 521 0z" horiz-adv-x="885" />

<glyph glyph-name="cog" unicode="&#xe822;" d="M571 350q0 59-41 101t-101 42-101-42-42-101 42-101 101-42 101 42 41 101z m286 61v-124q0-7-4-13t-11-7l-104-16q-10-30-21-51 19-27 59-77 6-6 6-13t-5-13q-15-21-55-61t-53-39q-7 0-14 5l-77 60q-25-13-51-21-9-76-16-104-4-16-20-16h-124q-8 0-14 5t-6 12l-16 103q-27 9-50 21l-79-60q-6-5-14-5-8 0-14 6-70 64-92 94-4 5-4 13 0 6 5 12 8 12 28 37t30 40q-15 28-23 55l-102 15q-7 1-11 7t-5 13v124q0 7 5 13t10 7l104 16q8 25 22 51-23 32-60 77-6 7-6 14 0 5 5 12 15 20 55 60t53 40q7 0 15-5l77-60q24 13 50 21 9 76 17 104 3 16 20 16h124q7 0 13-5t7-12l15-103q28-9 51-20l79 59q5 5 13 5 7 0 14-5 72-67 92-95 4-5 4-12 0-7-4-13-9-12-29-37t-30-40q15-28 23-54l102-16q7-1 12-7t4-13z" horiz-adv-x="857.1" />

<glyph glyph-name="location" unicode="&#xe823;" d="M250 750q104 0 177-73t73-177q0-106-62-243t-126-223l-62-84q-10 12-27 35t-60 89-76 130-60 147-27 149q0 104 73 177t177 73z m0-388q56 0 96 40t40 96-40 95-96 39-95-39-39-95 39-96 95-40z" horiz-adv-x="500" />

<glyph glyph-name="cancel" unicode="&#xe824;" d="M724 112q0-22-15-38l-76-76q-16-15-38-15t-38 15l-164 165-164-165q-16-15-38-15t-38 15l-76 76q-16 16-16 38t16 38l164 164-164 164q-16 16-16 38t16 38l76 76q16 16 38 16t38-16l164-164 164 164q16 16 38 16t38-16l76-76q15-15 15-38t-15-38l-164-164 164-164q15-15 15-38z" horiz-adv-x="785.7" />

<glyph glyph-name="ok" unicode="&#xe825;" d="M933 534q0-22-16-38l-404-404-76-76q-16-15-38-15t-38 15l-76 76-202 202q-15 16-15 38t15 38l76 76q16 16 38 16t38-16l164-165 366 367q16 16 38 16t38-16l76-76q16-15 16-38z" horiz-adv-x="1000" />

<glyph glyph-name="minus" unicode="&#xe826;" d="M786 439v-107q0-22-16-38t-38-15h-678q-23 0-38 15t-16 38v107q0 23 16 38t38 16h678q23 0 38-16t16-38z" horiz-adv-x="785.7" />

<glyph glyph-name="tag" unicode="&#xe827;" d="M250 600q0 30-21 51t-50 20-51-20-21-51 21-50 51-21 50 21 21 50z m595-321q0-30-20-51l-274-274q-22-21-51-21-30 0-50 21l-399 399q-21 21-36 57t-15 65v232q0 29 21 50t50 22h233q29 0 65-15t57-36l399-399q20-21 20-50z" horiz-adv-x="857.1" />

<glyph glyph-name="tags" unicode="&#xe828;" d="M250 600q0 30-21 51t-50 20-51-20-21-51 21-50 51-21 50 21 21 50z m595-321q0-30-20-51l-274-274q-22-21-51-21-30 0-50 21l-399 399q-21 21-36 57t-15 65v232q0 29 21 50t50 22h233q29 0 65-15t57-36l399-399q20-21 20-50z m215 0q0-30-21-51l-274-274q-22-21-51-21-20 0-33 8t-29 25l262 262q21 21 21 51 0 29-21 50l-399 399q-21 21-57 36t-65 15h125q29 0 65-15t57-36l399-399q21-21 21-50z" horiz-adv-x="1071.4" />

<glyph glyph-name="bookmark" unicode="&#xe829;" d="M650 779q12 0 24-5 19-8 29-23t11-35v-719q0-19-11-35t-29-23q-10-4-24-4-27 0-47 18l-246 236-246-236q-20-19-46-19-13 0-25 5-18 7-29 23t-11 35v719q0 19 11 35t29 23q12 5 25 5h585z" horiz-adv-x="714.3" />

<glyph glyph-name="thumbs-up" unicode="&#xe82a;" d="M143 100q0 15-11 25t-25 11-25-11-11-25 11-25 25-11 25 11 11 25z m643 321q0 29-22 50t-50 22h-196q0 32 27 89t26 89q0 55-17 81t-72 27q-14-15-21-48t-17-70-33-61q-13-13-43-51-2-3-13-16t-18-23-19-24-22-25-22-19-22-15-20-6h-18v-357h18q7 0 18-1t18-4 21-6 20-7 20-6 16-6q118-41 191-41h67q107 0 107 93 0 15-2 31 16 9 26 30t10 41-10 38q29 28 29 67 0 14-5 31t-14 26q18 1 30 26t12 45z m71 1q0-50-27-91 5-18 5-38 0-43-21-81 1-12 1-24 0-56-33-99 0-78-48-123t-126-45h-72q-54 0-106 13t-121 36q-65 23-77 23h-161q-29 0-50 21t-21 50v357q0 30 21 51t50 21h153q20 13 77 86 32 42 60 72 13 14 19 48t17 70 35 60q22 21 50 21 47 0 84-18t57-57 20-104q0-51-27-107h98q58 0 101-42t42-100z" horiz-adv-x="857.1" />

<glyph glyph-name="thumbs-down" unicode="&#xe82b;" d="M143 600q0 15-11 25t-25 11-25-11-11-25 11-25 25-11 25 11 11 25z m643-321q0 19-12 45t-30 26q8 10 14 27t5 31q0 38-29 66 10 17 10 38 0 21-10 41t-26 30q2 16 2 31 0 47-27 70t-76 23h-71q-73 0-191-41-3-1-16-5t-20-7-20-7-21-6-18-4-18-1h-18v-357h18q9 0 20-5t22-15 22-20 22-25 19-24 18-22 13-17q30-38 43-51 23-24 33-61t17-70 21-48q54 0 72 27t17 81q0 33-26 89t-27 89h196q28 0 50 22t22 50z m71-1q0-57-42-100t-101-42h-98q27-55 27-107 0-66-20-104-19-39-57-57t-84-18q-28 0-50 21-19 18-30 45t-14 51-10 47-17 36q-27 28-60 71-57 73-77 86h-153q-29 0-50 21t-21 51v357q0 29 21 50t50 21h161q12 0 77 23 72 24 125 36t111 13h63q78 0 126-44t48-121v-3q33-43 33-99 0-12-1-24 21-38 21-80 0-21-5-39 27-41 27-91z" horiz-adv-x="857.1" />

<glyph glyph-name="cancel-1" unicode="&#xe82c;" d="M452 194q18-18 18-43t-18-43q-18-16-43-16t-43 16l-132 152-132-152q-18-16-43-16t-43 16q-16 18-16 43t16 43l138 156-138 158q-16 18-16 43t16 43q18 16 43 16t43-16l132-152 132 152q18 16 43 16t43-16q18-18 18-43t-18-43l-138-158z" horiz-adv-x="470" />

<glyph glyph-name="check" unicode="&#xe82d;" d="M249 0q-34 0-56 28l-180 236q-16 24-12 52t26 46 51 14 47-28l118-154 296 474q16 24 43 30t53-8q24-16 30-43t-8-53l-350-560q-20-32-56-32z" horiz-adv-x="667" />

<glyph glyph-name="trophy" unicode="&#xe82e;" d="M510 134l0-66q70-8 116-32t46-56q0-36-65-63t-157-27q-90 0-156 27t-66 63q0 32 46 56t118 32l0 66q0 50-33 84t-113 88q-56 36-87 61t-75 72-64 108-20 137q0 14 11 24t25 10l172 0q48 92 242 92 196 0 244-92l170 0q14 0 25-10t11-24q0-76-20-137t-64-108-75-72-87-61q-78-52-111-87t-33-85z m138 252q80 56 126 114t54 148l-126 0q-6-158-54-262z m-198 364q-62 0-108-15t-64-32-18-29q0-14 18-31t64-32 108-15 108 15 64 32 18 31q0 12-18 29t-64 32-108 15z m-378-102q8-90 54-148t126-114q-48 104-54 262l-126 0z" horiz-adv-x="900" />

<glyph glyph-name="article" unicode="&#xe82f;" d="M696 661l0-82-696 0 0 82 696 0z m-182-180l0-82-514 0 0 82 514 0z m182-180l0-82-696 0 0 82 696 0z m-182-180l0-82-514 0 0 82 514 0z" horiz-adv-x="696" />

<glyph glyph-name="wrench" unicode="&#xe830;" d="M214 29q0 14-10 25t-25 10-25-10-11-25 11-25 25-11 25 11 10 25z m360 234l-381-381q-21-20-50-20-29 0-51 20l-59 61q-21 20-21 50 0 29 21 51l380 380q22-55 64-97t97-64z m354 243q0-22-13-59-27-75-92-122t-144-46q-104 0-177 73t-73 177 73 176 177 74q32 0 67-10t60-26q9-6 9-15t-9-16l-163-94v-125l108-60q2 2 44 27t75 45 40 20q8 0 13-5t5-14z" horiz-adv-x="928.6" />

<glyph glyph-name="phone" unicode="&#xe831;" d="M786 158q0-15-6-39t-12-38q-11-28-68-60-52-28-103-28-15 0-30 2t-32 7-26 8-31 11-28 10q-54 20-97 47-71 44-148 120t-120 148q-27 43-46 97-2 5-10 28t-12 31-8 26-7 32-2 29q0 52 29 104 31 57 59 68 14 6 38 12t39 6q8 0 12-2 10-3 30-42 6-11 16-31t20-35 17-30q2-2 10-14t12-20 4-16q0-11-16-27t-35-31-34-30-16-25q0-5 3-13t4-11 8-14 7-10q42-77 97-132t131-97q1 0 10-6t14-8 11-5 13-2q10 0 25 16t30 34 31 35 28 16q7 0 15-4t20-12 14-10q14-8 30-17t36-20 30-17q39-19 42-29 2-4 2-12z" horiz-adv-x="785.7" />

<glyph glyph-name="logout" unicode="&#xe832;" d="M357 46q0-2 1-11t0-14-2-14-5-11-12-3h-178q-67 0-114 47t-47 114v392q0 67 47 114t114 47h178q8 0 13-5t5-13q0-2 1-11t0-15-2-13-5-11-12-3h-178q-37 0-63-26t-27-64v-392q0-37 27-63t63-27h174t6 0 7-2 4-3 4-5 1-8z m518 304q0-14-11-25l-303-304q-11-10-25-10t-25 10-11 25v161h-250q-14 0-25 11t-11 25v214q0 15 11 25t25 11h250v161q0 14 11 25t25 10 25-10l303-304q11-10 11-25z" horiz-adv-x="928.6" />

<glyph glyph-name="login" unicode="&#xe833;" d="M661 350q0-14-11-25l-303-304q-11-10-26-10t-25 10-10 25v161h-250q-15 0-25 11t-11 25v214q0 15 11 25t25 11h250v161q0 14 10 25t25 10 26-10l303-304q11-10 11-25z m196 196v-392q0-67-47-114t-114-47h-178q-7 0-13 5t-5 13q0 2-1 11t0 15 2 13 5 11 12 3h178q37 0 64 27t26 63v392q0 37-26 64t-64 26h-174t-6 0-6 2-5 3-4 5-1 8q0 2-1 11t0 15 2 13 5 11 12 3h178q67 0 114-47t47-114z" horiz-adv-x="857.1" />

<glyph glyph-name="clock" unicode="&#xe834;" d="M500 546v-250q0-7-5-12t-13-5h-178q-8 0-13 5t-5 12v36q0 8 5 13t13 5h125v196q0 8 5 13t12 5h36q8 0 13-5t5-13z m232-196q0 83-41 152t-110 111-152 41-153-41-110-111-41-152 41-152 110-111 153-41 152 41 110 111 41 152z m125 0q0-117-57-215t-156-156-215-58-216 58-155 156-58 215 58 215 155 156 216 58 215-58 156-156 57-215z" horiz-adv-x="857.1" />

<glyph glyph-name="print" unicode="&#xe835;" d="M66 526q-26 0-22 22 4 10 12 14 2 0 49 17t93 32 58 15l44 0 0 150 380 0 0-150 46 0q12 0 57-15t92-32 49-17q18-8 12-26-4-10-20-10l-850 0z m860-56q20 0 37-19t17-41l0-174q0-22-17-41t-37-19l-100 0 44-250-760 0 44 250-98 0q-20 0-38 19t-18 41l0 174q0 22 18 41t38 19l870 0z m-716-444l560 0-70 324-420 0z" horiz-adv-x="980" />

<glyph glyph-name="videocam" unicode="&#xe836;" d="M1000 654v-608q0-23-22-32-7-3-14-3-15 0-25 10l-225 225v-92q0-67-47-114t-113-47h-393q-67 0-114 47t-47 114v392q0 67 47 114t114 47h393q66 0 113-47t47-114v-92l225 225q10 10 25 10 7 0 14-2 22-10 22-33z" horiz-adv-x="1000" />

<glyph glyph-name="camera" unicode="&#xe837;" d="M536 475q66 0 113-47t47-114-47-113-113-47-114 47-47 113 47 114 114 47z m393 232q59 0 101-42t41-101v-500q0-59-41-101t-101-42h-786q-59 0-101 42t-42 101v500q0 59 42 101t101 42h125l28 76q11 27 39 47t58 20h286q29 0 57-20t39-47l29-76h125z m-393-643q103 0 176 74t74 176-74 177-176 73-177-73-73-177 73-176 177-74z" horiz-adv-x="1071.4" />

<glyph glyph-name="plus" unicode="&#xe838;" d="M786 439v-107q0-22-16-38t-38-15h-232v-233q0-22-16-37t-38-16h-107q-22 0-38 16t-15 37v233h-232q-23 0-38 15t-16 38v107q0 23 16 38t38 16h232v232q0 22 15 38t38 16h107q23 0 38-16t16-38v-232h232q23 0 38-16t16-38z" horiz-adv-x="785.7" />

<glyph glyph-name="tennis" unicode="&#xe839;" d="M1000 371c-47-26-89-59-126-97-21-22-40-45-60-70-19-24-39-50-62-73-62-64-145-100-234-102-2 0-4 0-6 0-87 0-169 33-231 93-65 61-101 144-103 234-1 89 32 173 93 237 23 24 47 45 71 65 24 21 47 41 68 63 36 38 67 82 92 129-132 1-264-51-362-153-191-199-185-516 14-707 199-191 516-185 707 14 98 102 144 235 139 367z m-618 240c-23-20-45-40-66-61-50-52-77-121-76-193 2-72 31-140 83-190 53-50 121-77 193-76 73 2 140 31 190 83 21 22 39 45 59 69 20 25 40 51 64 74 47 49 102 90 163 121-18 100-66 196-146 272-79 77-177 122-278 135-28-62-67-118-113-168-24-24-48-45-73-66z" horiz-adv-x="1000" />

<glyph glyph-name="racing" unicode="&#xe83a;" d="M886 457c-151 0-275-135-275-304 0-13 1-25 2-39 17-150 133-266 273-266 144 0 262 122 274 278 1 9 1 17 1 26 0 170-123 305-275 305z m-137-189l56-62c-5-8-7-17-10-26h-80c5 32 16 63 34 88z m-34-142h80c3-9 6-18 10-26l-56-62c-18 25-29 56-34 88z m148-162c-29 5-57 17-80 36l56 62c7-5 16-8 24-11v-87z m0 291l0 0c-8-3-17-6-24-11l-56 62c23 19 50 33 80 36v-87z m47 87c31-5 57-17 80-36l-55-62c-8 5-16 8-25 11v87z m0-378v87c9 3 17 6 25 11l55-62c-23-19-51-31-80-36z m114 74l-55 63c4 8 8 17 9 27h79c-5-34-16-66-33-90z m-46 141l0 0c-2 9-6 18-9 26l55 62c17-25 29-56 33-88h-79z m1824-26c0 136 66 253 163 319l-647 319h-199c-24 0-44-22-44-49v-64c0-27 20-49 44-49h29v-43h-74c-23 0-44-17-51-41l-6-20c-135 12-198-102-265-102l-45 61c-27 36-68 55-111 51-13-1-26-4-40-10l-25-102c0 0-115 15-416 3 66-68 108-165 108-273 0-11 1-236 1-236h1655c-39 52-66 117-74 189-1 17-3 33-3 47z m-2253 0c0 86 27 164 70 227-231-35-457-96-618-194 0-52 208-1 208-109h-160c-16 0-30-15-30-33v-96c0-17 14-31 30-31h398c16 0 29 14 29 32v150h77c0 2-1 4-1 8-2 16-3 32-3 46z m3010 697h-427c-40 0-73-36-73-80v-105c0-22 8-42 22-57l74-83c178-9 320-172 320-372 0-5 0-10-1-14h156v631c2 45-31 80-71 80z m-407-393c-152 0-276-135-276-304 0-13 2-25 3-39 17-150 132-266 273-266 144 0 261 122 274 278 1 9 1 17 1 26-1 170-124 305-275 305z m-139-189l56-62c-5-8-7-17-10-26h-78c3 32 15 63 32 88z m-32-142h80c2-9 6-18 9-26l-55-62c-19 25-31 56-34 88z m146-162c-30 5-57 17-80 36l56 62c7-5 16-8 24-11v-87z m0 291l0 0c-8-3-17-6-24-11l-56 62c23 19 50 33 80 36v-87z m48 87c30-5 57-17 80-36l-56-62c-7 5-16 8-24 11v87z m0-378v87c8 3 17 6 24 11l56-62c-23-19-50-31-80-36z m114 74l-56 63c5 8 8 17 9 27h79c-3-34-14-66-32-90z m-47 141l0 0c-2 9-6 18-9 26l56 62c17-25 29-56 32-88h-79z" horiz-adv-x="3636" />

<glyph glyph-name="badminton" unicode="&#xe83b;" d="M56-110c-5 6-11 11-16 16 0 1-1 2-2 3-30 37-41 78-34 125 5 34 20 63 45 87 30 30 60 61 90 90 11 10 16 21 20 35 26 102 55 204 91 303 21 59 43 117 72 173 13 24 26 47 43 69 4 6 8 11 13 16 2 3 5 6 8 8 3 2 6 5 9 7 40 31 96 35 140 8 6-3 11-7 17-11 5-5 11-11 17-16 0-1 0-2 1-3 14-17 22-36 25-57 2-10 2-19 3-29 0 0 0 0 0 0 1 0 1 0 2 0 24 1 46-4 67-16 6-3 12-8 18-12 6-6 11-11 16-16 1-1 1-2 2-3 16-20 25-44 27-70 0-5-1-11-1-17 2 1 3 1 4 1 26 1 50-5 73-19 4-3 8-6 13-9 5-5 11-11 16-17 1 0 1-1 2-2 18-22 27-48 27-77 0-3 0-6 0-10 1 1 3 1 3 1 25 1 48-6 69-18 6-3 11-7 16-11 6-5 11-11 16-16 1-1 1-2 2-3 33-41 36-100 7-145-3-5-7-9-10-14-5-6-10-11-16-16-1-1-2-2-3-3-6-4-12-9-18-14-28-20-59-35-90-50-66-31-135-56-204-79-85-28-171-52-258-74-2-1-5-2-6-4-35-34-69-68-104-103-6-6-12-11-19-16-52-37-121-38-174-5-6 4-12 9-19 13z m169 321c1 2 2 3 2 4 35 64 69 127 105 190 31 56 65 111 101 165 15 22 30 43 46 65 12 15 25 29 38 44 2 3 4 5 6 8 20 29 13 68-17 88-24 15-54 14-76-5-10-8-18-19-26-30-15-23-27-46-39-71-27-57-49-117-69-177-21-60-39-121-56-182-8-29-15-58-23-87 0-1-1-4 0-5 2-2 5-4 8-7z m136-136c2-2 4-4 5-5 2-3 5-3 8-2 52 14 104 28 157 43 77 23 154 48 229 79 46 19 91 38 132 66 12 9 24 18 32 30 20 29 12 68-15 87-25 17-59 16-83-8-12-12-25-23-39-33-21-16-42-32-64-47-49-33-100-63-151-93-68-40-137-78-207-115-1 0-2-1-4-2z m-44 48c0-1 0-1 0-1 1 1 2 1 2 1 50 28 100 55 149 82 68 38 134 77 199 119 20 13 39 26 59 40 13 10 27 20 39 31 9 7 17 14 23 22 22 27 16 68-13 89-25 19-59 16-82-7-124-125-248-249-373-374-1 0-2-1-3-2z m-45 45c1 0 1 0 1 0 1 1 2 2 3 3 124 124 249 248 373 373 3 2 5 5 7 8 20 28 13 68-14 87-26 19-61 17-84-8-11-12-21-24-30-36-17-23-34-46-49-70-29-46-58-93-86-140-33-57-64-115-96-172-9-14-17-30-25-45z m-112-25c44-44 89-88 133-133 7 8 14 15 22 22-44 45-89 89-133 133-8-7-15-14-22-22z" horiz-adv-x="1000" />

<glyph glyph-name="basketball" unicode="&#xe83c;" d="M622 536c-36 32-79 50-124 61-86 22-173 25-260 16-18-2-35-5-52-7-2-1-6-4-6-6-3-27-4-54-6-82 49 3 92-7 133-29 29-16 55-36 79-59 26-26 53-52 89-64 27-9 55-14 83-21 2 0 7 2 9 4 30 42 50 88 58 139 2 11 2 21 4 32 0 7-2 12-7 16z m-416 153c-3 0-7-2-8-4-5-21-11-41-16-62 33 3 63 7 93 9 91 4 181-1 268-32 30-11 58-26 86-46-3 16-4 32-7 48-16 73-54 132-112 180-5 5-10 5-16 2-73-35-147-65-225-83-21-5-42-8-63-12z m1 17c99 12 189 51 280 92-23 16-47 28-73 36-31 11-64 16-97 16-4 0-10-2-14-5-46-35-76-82-96-136-1-1 0-1 0-3z m-55-192c3 1 7 4 7 6 1 26 2 53 4 83-29-11-58-20-84-33-25-12-48-28-72-43-3-2-6-7-5-11 3-52 18-101 47-147 2 4 3 8 5 11 14 39 30 77 60 107 11 11 25 18 38 27z m5 102c6 1 9 4 10 11 4 20 9 39 14 61-43 1-85 4-119 36-40-54-60-113-62-181 8 5 15 10 21 14 42 26 87 47 136 59z m24 88c3 0 7 3 8 6 20 52 48 99 89 137-83-9-150-46-205-110 20-20 44-28 71-31 12-2 24-2 37-2z m12-354c0 0 0 1 0 1-20 47-30 96-33 148-18-5-30-16-40-28-21-24-34-52-46-81-3-8-5-16-9-23-3-6-3-12-2-17h130z m18 0h261c-30 11-56 28-79 50-29 29-60 57-96 76-37 20-88 31-121 25 1-36 8-72 18-106 5-15 10-30 17-45z m-157-19v-99h59l58-280-1-1 1 0 176-99 108 67 118-69c9 1 167 101 167 101s18 12 28 18l51 263h59v99h-824z m85-99h18l48-29-54-32-12 61z m230-99l91 54 90-54-90-54-91 54z m69-68l-91-54-93 54 92 55 92-55z m135 54l81-48-88-55-83 49 90 54z m23 14l90 54 79-47-89-55-80 48z m60 99h60l-30-18-30 18z m7-32l-90-54-90 54 53 32h75l52-32z m-203 14l-30 18h60l-30-18z m-23-13l-91-54-95 56 48 29h85l53-31z m-209 16l-25 15h50l-25-15z m-72-70l72 43 95-57-92-54-69 40-6 28z m12-59l40-23-31-18-9 41z m26-123l-13 62 2-4 48 28 92-54-90-54-39 22z m151-86l-88 50 90 54 85-50-87-54z m110 68l-85 50 91 55 83-50-89-55z m120-71l-97 58 89 55 97-58-89-55z m171 106l-60-37-97 58 88 54 74-45-5-30z m10 55l-57 34 72 45-15-79z m23 121l-70 43 53 31h32l-15-74z m76 100h-778v50h778v-50z" horiz-adv-x="878" />

<glyph glyph-name="boxing" unicode="&#xe83d;" d="M388 119c0 0 0 0 0 0l9-54 53-9c0 0 0 0 0 0l-10 52-52 11z m470 409c-206 207-324 101-343 28-9-34-9-48-9-48-31 15-110 36-178-214l-146-180c33-57 71-106 114-150 43-44 93-81 149-114l180 147c59 27 154 38 214 99 125 124 206 245 19 432z m-291-444c-12-12-32-12-44 0-3 3-5 6-7 10l-38 7 7-38c4-2 7-4 10-7 12-12 12-32 0-45-13-12-32-12-45 0-2 3-5 6-6 10l-41 7 7-41c4-2 7-4 10-6 12-13 12-33 0-45-13-12-32-12-45 0-12 12-12 32 0 45 0 0 1 0 1 0l-10 53-53 10c0 0 0 0 0 0-12-13-32-13-44 0-13 12-13 32 0 44 12 13 32 13 44 0 3-2 5-6 6-9l41-7-7 41c-3 1-7 3-9 6-13 12-13 32 0 45 12 12 32 12 44 0 3-3 5-7 7-10l38-8-7 39c-4 1-7 3-10 6-12 13-12 33 0 45 12 12 32 12 44 0 13-12 13-32 0-44l10-53 53-10c12 12 32 12 44 0 12-13 12-33 0-45z m-321 159l-13 18-52-15c0 0 0 0 0 0l32-43 33 40z m-117-58c3-2 7-3 10-6l39 12-25 33c-3 0-7 1-11 2-16 5-25 23-20 40 5 16 23 25 40 20 4-2 7-4 10-6l38 11-24 31c-4-1-8 0-12 1-16 5-25 23-20 40 5 16 23 25 40 20 16-6 25-23 20-40l32-42 52 14c1 5 4 9 7 13 29 95 60 147 60 147s-32 84-127 46c113 54 31 140 31 140s97-74 191-115c5 1 10 1 14 1 2 0 4 0 6 0 1 5 3 11 4 17 13 50 58 102 128 114-23 52-79 107-195 145-251 84-322-44-376-211-27-82 6-172 8-236l-49-228c55-35 111-63 169-82 2 0 4-1 6-2-7 11-13 22-20 34l-11 19 29 36-24-8c0 0 0 0 0 0-5-17-23-26-40-20-16 5-25 23-20 40 5 16 23 25 40 20z" horiz-adv-x="969" />

<glyph glyph-name="cricket" unicode="&#xe83e;" d="M470 257c12 127 24 254 37 382 1 9 3 19 8 27 8 11 20 17 35 16 8-1 17-2 25-3 19-2 31-15 32-34 0-5-1-10-1-15-24-255-48-510-72-765 0-1-1-2-1-3-1-13-1-13-13-12-26 3-51 5-76 8-11 1-11 1-10 12 12 129 24 258 36 387z m-117-12c2-127 3-253 5-380 0-13 0-13-12-13-24 0-48 0-72 0-11 0-11 0-12 12 0 57-1 114-2 172-3 196-5 393-8 589 0 28 9 37 37 37 8 0 17 0 26 0 20-1 31-11 32-32 1-6 0-12 1-18 2-122 3-244 5-367 0 0 0 0 0 0z m-213-393c-12 0-25 0-37 0-7 0-10 2-10 9-5 69-9 139-14 208-5 74-11 149-16 223-4 58-8 116-12 175-3 49-7 99-10 148-2 24 9 37 33 37 11 1 21 1 31 0 18-1 29-10 30-28 3-32 5-65 8-98 5-78 10-155 16-233 4-60 8-121 12-181 4-61 9-122 13-183 1-22 3-44 4-65 0-11 0-11-11-12-13 0-25 0-37 0z m306 977c1 3 2 8 4 13 3 7 9 9 16 7 9-3 17-7 26-10 4-1 9-1 11 1 7 5 13 4 20 1 31-11 63-23 95-34 6-2 12-4 13-11 0-6 4-8 9-10 9-3 17-6 25-9 9-4 11-7 8-16-1-4-3-9-6-13-3-6-8-7-14-5-6 3-13 5-19 7-7 3-15 7-23 0-2-2-8-1-11 0-33 12-67 24-100 36-4 2-9 5-9 9-2 7-6 10-12 12-8 2-16 5-24 8-6 2-9 6-9 14z m-216-25c1-8-3-12-11-13-6-2-13-5-19-7-7-2-13-3-14-12-1-3-4-6-7-7-36-12-72-24-108-35-2-1-7-1-9 1-6 7-12 4-19 2-6-3-13-5-19-7-11-3-14-2-19 8-8 14-5 22 10 27 7 2 13 4 20 6 5 2 9 4 11 11 1 3 5 7 9 8 34 12 68 23 103 34 3 1 9 2 11 0 6-7 12-5 19-2 6 2 13 4 20 6 11 4 17 1 20-10 1-3 1-7 2-10z" horiz-adv-x="675" />

<glyph glyph-name="football" unicode="&#xe83f;" d="M888 665c-95 118-237 185-388 185-134 0-259-52-354-146-94-95-146-220-146-354 0-70 14-137 42-200 42-95 114-177 203-230 0 0 0 0 0 0 77-46 165-70 255-70 22 0 44 1 65 4 113 15 219 69 298 152 86 91 134 209 137 334 0 0 0 0 0 0 0 3 0 7 0 10 0 115-40 227-112 315z m-666-510l95 166h160l84-163-81-141h-178l-80 138z m539 22h-165l-83 161 84 145h175l82-141-93-165z m87 474l-73-128h-182l-79 138 75 140c100-19 192-72 259-150z m-348 159c16 0 32-1 47-2l-68-127h-162l-43 69c67 38 144 60 226 60z m-260-81l43-69-81-139h-129c34 85 93 157 167 208z m-200-379c0 46 7 90 19 131h143l81-140-94-164h-116c-22 55-33 113-33 173z m242-406l19 33h179l50-86c-86-6-172 13-248 53z m570 110l-58 101 94 166h71c-6-99-44-192-107-267z m-249 678c2-1 5-1 7-2 24-7 47-16 68-27 39-20 75-46 105-78 4-4 9-6 14-6 5 0 10 2 14 5 8 8 8 21 1 28-34 36-73 65-116 86-24 13-49 22-75 30-3 0-6 1-9 2-10 3-21-4-24-14s4-21 15-24z m-258-21c2 0 5 1 8 2 38 16 78 27 119 30 11 1 19 11 18 22-1 11-11 19-22 18-45-4-90-15-131-34-10-4-15-16-11-26 4-7 11-12 19-12z" horiz-adv-x="1000" />

<glyph glyph-name="hockey" unicode="&#xe840;" d="M966 844c1 0 2-1 3-2 8-8 13-12 23-21 10-10 12-20-3-34-15-15-31-29-46-43-13-13-25-28-37-42-20-24-40-48-61-72-10-12-22-22-32-34-39-47-77-94-116-141-9-12-19-23-27-35-7-9-12-19-18-28-12-17-24-35-36-52-18-25-37-50-55-75-7-10-14-20-22-29-25-30-51-60-77-89-31-37-63-72-95-109-27-30-53-61-80-92-12-14-23-28-34-42-18-20-39-35-65-44-27-10-55-9-82-3-30 7-51 21-73 46-13 16-18 25-25 41-2 5-3 12-5 17-5 19-2 36 3 60 4 16 10 30 19 44 14 25 42 39 70 32 18-4 42-26 42-47 0-18-6-32-15-46-11-16-2-37 21-39 7-1 17 6 23 12 26 28 51 58 76 87 20 24 41 48 61 72 14 16 28 31 42 47 20 23 40 46 59 70 38 45 79 87 121 128 26 26 54 49 79 75 36 36 70 72 105 109 18 19 36 39 54 59 18 20 35 42 53 63 6 8 13 16 20 23 11 12 22 25 33 37 10 13 20 25 30 38 10 13 18 25 28 39 5 7 6 6 11 13 4 5 14 20 28 7z m-609-916c0 41 34 74 74 74 42 0 75-33 75-75-1-40-34-73-75-73-41 0-74 33-74 74z" horiz-adv-x="1000" />

<glyph glyph-name="pencil" unicode="&#xe841;" d="M0-143l68 343 274-273z m137 392l422 422 259-260-421-422z m531 494q2 39 31 69t69 31 66-25l131-131q25-26 24-66t-30-69-69-30-66 24l-131 131q-27 27-25 66z" horiz-adv-x="989" />

<glyph glyph-name="dot-3" unicode="&#xe842;" d="M110 460q46 0 78-32t32-78q0-44-32-77t-78-33-78 33-32 77q0 46 32 78t78 32z m350 0q46 0 78-32t32-78q0-44-33-77t-77-33-77 33-33 77q0 46 32 78t78 32z m350 0q46 0 78-32t32-78q0-44-32-77t-78-33-78 33-32 77q0 46 32 78t78 32z" horiz-adv-x="920" />

<glyph glyph-name="kabbadi" unicode="&#xe843;" d="M12-127c1-4 3-8 4-12 0-4 1-8 2-11h86c-6 13-13 27-19 40 7 8 16 17 24 25 10 12 22 21 36 28 17 10 35 19 52 28 0 1 1 1 1 1 6 0 10 5 13 9 4 4 7 10 11 15 6 6 11 12 17 18 0-1 1-1 1-1 1-3 3-7 3-10 4-24 7-48 10-72 2-10 4-21 4-31-1-14-3-28-4-43 0-2 0-5-1-8h88c13 45 25 90 31 136 1 7 2 14 8 20 1 1 2 4 2 7-1 11-2 23-3 34-1 3 0 5 3 6 2 2 5 4 5 7 0 7 0 14-2 20-1 7-5 13-6 20-1 4-1 9 0 14 1 5 2 11 0 16-3 5-2 8 2 12 1 2 2 4 3 7 0 1-1 3-1 4 1 0 1 0 2-1 2 3 7 6 7 9 2 10 2 19-2 29-4 8-7 17-11 26 0 1 0 3 0 4 0 5 1 9 0 14-1 27-1 55 2 83 1 10 3 21 5 32 1 3 3 6 5 9 5 12 11 25 16 38 8 18 19 33 32 47 3 2 5 4 8 6 0 0 1 0 1 1-1 0-2 1-3 2 2 2 4 3 6 5 2 2 5 5 5 7 2 9 3 18 4 28 1 4 2 8-3 11 3 5 6 9 8 14 8 20 15 40 22 60 8 22 14 44 17 66 4 21 3 41-4 60-3 8-6 17-10 25-3 6-4 11 2 17 5 5 8 12 13 19 2 3 5 5 8 8 2 3 3 6-1 9-1 0-1 2-1 3 1 6-2 11-6 16-2 2-4 4-5 7-4 7-10 10-18 6-4-2-7-4-13-6 1 8 2 14 3 21 0 1 0 3 0 4-2 4-3 9-5 13-1 4-4 6-8 5-4-1-5-4-5-8-1-2 0-5-1-8-3-11-5-22-4-34 2-14-4-29 0-44 0 0 0 0 0 0-2-13-4-27-4-40 0-21-4-42-7-63-3-15-6-30-13-44-9-16-16-33-24-49 0-2-1-3-2-4-4 2-7 0-9-3-7-9-14-16-22-24-3-3-7-7-7-12 0-5-2-8-5-12-3-3-4-7-7-11-1-2-3-4-5-4-3 1-7-1-8 4-1 2-4 4-5 4-4-1-6 2-9 3-3 2-6 4-9 5-3 2-3 3 0 5 2 2 4 4 6 6 5 10 9 20 10 32 0 5 2 10 3 16 2 7 2 14 1 21-1 4-1 9 0 13 1 4 1 7-1 11 0 1-1 3-1 5-2 9-4 17-5 26-1 6-3 12-1 18 0 3 0 6-2 8-2 3-5 6-8 10-2 2-4 4-7 5-1 1-4-1-5-1-2 0-4 1-5 1-3 2-5 3-8 5-2-5-6-2-9-2-2 0-5 1-6 0-3-4-7-3-11-1-6 2-12 2-17-2 0-1-2-1-3-1-1-1-2-1-3-2-4-4 1-5 2-8-13-6-23-15-30-28-1-2-3-5-3-7 0-11-1-22 0-33 1-7 4-15 5-22 1-8 4-15 10-20 2-2 3-4 3-7 1-5 1-10 2-15 0-9 0-18-5-26-2-3-4-4-7-3-5 1-9 0-12-3-1-1-2-1-4-2-6-2-13-4-19-7-7-5-15-8-23-9-23-5-40-16-51-37-9-17-19-33-28-50-4-7-7-15-9-23-1-1-1-4 0-5 4-3 3-6 1-10-2-3-4-7-5-10-10-24-18-48-23-73-2-9-4-19-3-28 3-25 10-49 23-71 5-9 10-17 10-28 1-11 5-22 12-31 1-1 2-2 2-3 2-6 3-13 4-20-2-1-5-3-8-4-5-3-5-3-6-8 5 5 11 4 17 4 3 0 4-2 2-4-4-5-8-9-12-14-2-2-4-4-6-7-3-3-5-7-8-10-15-17-27-37-38-57-7-12-14-25-20-37-3-5-5-10-6-15-1-8-5-15-7-23 0-3 0-6 0-8 1-9 5-16 8-23 2-7 3-14 4-20z m89 395c0 3 1 5 2 7 10 21 22 41 36 59 1 0 2 0 2 0 0-10 0-20 1-29 0-20 0-40 1-59 0-7 0-13-3-20-5-10-7-20-5-31 0-5 2-9 6-13 4-2 6-6 8-10-13-11-15-17-10-29-2 0-4-1-5 0-4 3-9 5-12 9-11 16-16 33-12 53 2 14-1 27-6 40-3 8-5 15-3 23z" horiz-adv-x="514" />

<glyph glyph-name="icon-refresh" unicode="&#xe844;" d="M990 424c1-6-3-11-9-11-28 0-102 0-134 0-10-1-15 5-18 22-14 63-47 116-92 160-55 53-120 82-195 93-83 11-157-9-226-52-83-51-131-126-151-219-18-86-2-169 44-244 48-80 118-131 208-153 135-32 249 7 343 109 3 3 6 8 11 15l-109 104-9 9c7 1 225-1 323-1 13 0 22-1 22-18-1-101 1-312 0-316l-111 114c-110-123-239-186-397-183-116 2-220 40-308 116-174 147-228 383-135 588 93 203 305 311 506 287 250-29 407-221 437-420z" horiz-adv-x="1000" />

<glyph glyph-name="change-team" unicode="&#xe845;" d="M984 546c-43 54-91 102-146 144-84 65-179 109-286 121-96 10-189-6-277-45-20-8-27-4-37 13-13 24-23 52-50 67-5 0-10 0-15 0-10-7-19-15-24-27-40-102-81-204-120-306-14-39 9-74 51-82 10-1 21-3 31-5 99-16 197-32 296-48 14-3 30-2 39 11 11 14 5 28-2 41-9 17-18 33-29 49-10 13-5 19 7 26 37 22 75 42 116 57 81 30 164 41 250 29 65-9 123-32 179-64 9-5 21-15 28-8 9 9-5 20-11 27z m-62-277c-11 2-22 3-33 5-99 16-197 33-296 49-14 2-29 2-39-11-11-14-5-29 2-42 9-17 18-33 29-48 10-14 5-20-7-27-37-22-75-41-116-56-81-30-164-42-250-30-65 10-123 32-179 64-9 5-21 16-28 8-9-9 5-19 11-27 43-54 91-102 146-144 84-65 179-109 286-121 96-11 189 5 277 44 20 9 27 5 37-12 13-25 23-52 50-68 5 0 10 0 15 0 10 7 19 16 24 27 40 103 81 205 120 307 14 38-9 74-49 82z" horiz-adv-x="1000" />

<glyph glyph-name="login-1" unicode="&#xe846;" d="M-549-68c4 2 8 1 12 1 0-1 0-1 0-1-4 0-8 0-12 0z m12 0c0 0 0 0 0 1 3 0 5 0 8 0 0-1 0-1 0-1-3 0-5 0-8 0z m-48 0c3 1 6 1 8-1-2 0-5 0-8 0 0 1 0 1 0 1 0 0 0 0 0 0z m0 0c0 0 0 0 0-1-2 0-5 0-7 0 0 1 0 1 0 1 2 1 5 1 7 0z m1115 367c-2-2-4-4-6-6-19-19-38-38-57-57-21-21-19-54 3-73 20-17 48-16 68 4 49 48 97 97 146 146 22 22 22 52 0 74-33 34-66 67-99 100-16 16-32 32-47 47-15 15-36 19-55 11-32-14-40-56-15-81 19-20 39-40 59-59 1-2 3-4 3-4-1-2-3-1-5-1-136 0-272 0-408 0-21 0-43 0-64 0-22 0-41-13-48-34-1-3-1-6-2-9 0-5 0-9 0-14 0-1 0-1 0-1 7-28 25-42 54-42 155 0 309 0 464 0 3 0 6 1 9-1z m467 77c0 9 0 17-1 26-5 41-17 81-34 119-26 56-63 104-110 143-44 36-92 63-146 78-29 8-58 14-87 14 0 1 0 1 0 1-2 0-4 0-6 0-3 0-6 0-9 0-8 0-17 0-25 0-4 0-7 0-10 0-1 0-2 0-3 0-1-2-2-1-3-1-14-1-27-3-41-5-81-15-151-50-210-107-22-20-41-43-57-67-12-18-11-40 1-57s32-24 52-19c14 3 23 11 31 23 72 105 200 155 323 126 167-40 270-210 227-376-38-151-182-248-337-229-57 8-108 30-153 67-24 19-44 41-61 66-12 17-32 25-51 21-35-8-51-48-30-78 75-107 178-166 309-177 2-1 4-1 6-1 2 0 4 1 7 0 7 0 15 0 22 0 3 1 6 0 10 0 2 0 4 0 6 0 7 0 13 0 20 1 33 4 65 11 96 22 30 12 59 27 87 45 30 21 58 45 82 74 19 23 36 48 50 74 13 25 24 51 32 78 8 29 14 58 14 88l0 0 0 1c0 2 0 4 0 6 0 2 0 4 0 6 0 8 0 15 0 23 0 3 0 6 0 8 0 2 0 4 0 6 0 1-1 1-1 1z" horiz-adv-x="1000" />

<glyph glyph-name="news" unicode="&#xe847;" d="M970 564c-6 14-28 26-45 10-8-7-12-17-12-28 0-160 0-320 0-480 0-28-9-52-29-72-35-34-89-40-129-12-28 20-43 48-43 82 0 232 0 463 0 695 0 2 0 4 0 6 0 15-8 29-25 31-209 0-418 0-628 0-14-3-24-13-24-26 0-15 0-29-1-43-1-48 1-95 0-143-1-48 0-96-1-145-1-47 0-94 0-141-1-63 0-126-1-189 0-11 0-22 0-32 0 0 0-1 0-1 0 0 0 0 0 0 0-3 0-6 0-9 0-3 0-6 0-9s0-6 0-9c0-3 0-6 0-8 0-4 0-7 0-10 0-3 0-6 0-9s0-6 0-8c0-3 0-6 0-9 0-3 0-6 0-10 0-3 0-6 0-8s0-6 0-9 0-6 0-9c0-3 0-6 0-9 0-3 0-6 0-9 0-3 0-6 0-9 0-5 0-10 0-15 3-12 10-20 22-22 6 0 13 0 19 0 4 0 8 0 12 0 4 0 8 0 12 0 4 0 8 0 12 0 4 0 8 0 12 0 4 0 8 0 12 0 4 0 8 0 12 0 5 0 9 0 13 0 4 0 8 0 12 0 4 0 8 0 12 0 4 0 8 0 12 0 4 0 8 0 12 0 4 0 9 0 13 0 4 0 8 0 12 0 8 0 16 0 24 0 0 0 0 0 0 0 61 0 122 0 183 0 42 0 84 0 125 1 80 0 159-1 239 1 5 0 9 0 14 0 13 0 26 2 39 5 30 9 55 24 76 48 20 22 33 47 39 76 1 5 0 10 1 15 0 169 0 338 0 507 0 1 0 4-1 6z m-319-601c-86-1-172-1-257-1-71-1-141-1-212-1-30 0-60-1-89-1-4 0-4 1-4 4 0 95 1 190 1 285 1 98 1 196 2 294 0 64 1 129 1 193 0 3 1 4 4 4 184 0 368 0 553 0 3 0 4-1 4-5 0-221 0-443 0-664 0-40 11-76 38-108-15 0-28 0-41 0z m177 94c2-19 20-31 38-24 12 4 19 15 19 29 0 162 0 325 0 487 0 2 0 3 0 5-1 18-19 30-36 25-13-3-21-14-21-29 0-82 0-163 0-244 0-81 0-162 0-243 0-2 0-4 0-6z m-90 0c1-17 18-30 35-26 14 4 22 15 22 30 0 163 0 326 0 489 0 1 0 2 0 3 0 18-18 31-35 27-14-4-22-15-22-30 0-81 0-163 0-244 0-81 0-162 0-243 0-2 0-4 0-6z m-126 122c-6 5-13 6-20 6-74 0-148 0-222 0-39 0-78 0-117 0-35 0-70 0-105 0-7 0-13-1-19-5-14-8-14-25 0-33 6-4 13-5 20-5 124 0 247 0 371 0 24 0 48 0 71 0 8 0 15 1 21 6 12 8 12 23 0 31z m-2-117c-7 3-13 4-20 4-130 0-260 0-390 0-17 0-34 0-51 0-7 0-14-1-20-5-14-9-14-25 0-33 6-4 13-5 20-5 74 0 147 0 221 0 73 0 146 0 219 0 2 0 5 0 7 0 5 0 10 1 14 4 7 4 11 9 11 17 0 9-5 14-11 18z m15 473c-7 5-14 7-22 7-39 0-77 0-116 0-39 0-77 0-116 0-8 0-16-2-22-7-10-8-10-21 0-29 6-5 14-7 22-7 29 0 57 0 86 0 48 0 97 0 145 0 9 0 16 2 23 7 9 9 9 21 0 29z m-498-268c6-5 13-6 21-6 38 0 76 0 115 0 38 0 77 0 115 0 9 0 17 2 23 8 9 7 9 19 1 27-7 6-14 8-22 8-78 0-156 0-234 0-7 0-13-2-19-6-12-8-12-23 0-31z m224 357c6-4 13-6 21-6 38 0 77 0 115 0 38 0 76 0 115 0 8 0 15 2 22 7 11 8 11 22-1 31-6 4-13 6-21 6-18 0-36 0-54 0-58 0-117 0-175 0-8 0-15-2-22-6-13-9-12-24 0-32z m-223-239c7-4 13-5 21-5 38 0 76 0 114 0 38 0 76 0 115 0 6 0 12 1 18 4 7 3 12 9 12 18 0 8-5 14-12 18-6 3-12 3-18 3-76 0-153 0-230 0-1 0-3 0-5 0-5 0-10-2-15-5-14-9-13-24 0-33z m310-113c0-14 8-22 22-22 45 0 90 0 135 0 15 0 23 8 23 23 0 47 0 93 0 140 0 15-8 23-23 23-45 0-89 0-134 0-13 0-24-9-24-23 1-23 0-47 0-70 1-24 1-47 1-71z m44 123c31 0 61 0 92 0 3 0 3-1 3-4 0-16 0-32 0-48 0-16 0-33 0-49 0-3 0-3-3-3-31 0-62 0-92 0-3 0-4 1-4 3 0 33 0 65 0 98 0 3 1 3 4 3z m-325 95c45 0 90 0 135 0 14 0 23 9 23 23 0 23 0 47 0 71 0 23 0 47 0 71 0 13-9 21-22 21-46 0-91 0-137 0-13 0-22-8-22-22 0-47 0-94 0-141 0-14 9-23 23-23z m21 146c31 0 62 0 92 0 3 0 4-1 4-4 0-33 0-65 0-98 0-2-1-3-4-3-30 0-61 0-92 0-3 0-3 1-3 3 0 17 0 33 0 49 0 17 0 33 0 49 0 3 0 4 3 4z" horiz-adv-x="1000" />

<glyph glyph-name="photos" unicode="&#xe848;" d="M249 250c1 0 2 0 3 0 0 0 1 0 2 0 0 0 0 0 0 0-1 0-2 0-2 0l0 0c-1 0-2 1-3 0z m721 505c-313 0-626 0-939 0-15-2-23-11-26-25 0-253 0-507 0-760 1-4 2-9 5-12 5-8 13-11 22-13 3 0 6 0 8 0 309 0 618 0 927 0 0 0 1 0 1 0 10 0 18 5 23 14 3 4 4 9 4 15 0 252 0 504 0 756-1 13-12 24-25 25z m-623-344c78-135 159-268 235-403-162 0-323 0-485 0 83 134 166 268 250 403z m260-310c37 34 73 69 110 103 2 2 3 3 5 0 58-64 116-127 175-191 1-1 3-3 5-5-2 0-4 0-5 0-77 0-155 0-232 0-3 0-5 1-6 3-18 28-35 56-52 84-2 2-2 3 0 6z m-537 592c287 0 573 0 859 0 3 0 5 0 5-4 0-205 0-410 0-615 0-1 0-2 0-4-19 21-37 40-55 60-43 47-86 94-129 141-3 3-5 6-8 10-12 13-32 14-44 1-14-15-30-30-45-45-28-28-56-56-85-84 0 0-1-1-2-2-6 10-12 20-18 30-58 99-117 198-175 297-12 21-39 21-52 0-84-135-168-270-252-404 0-2-1-3-3-5 0 2 0 3 0 4 0 205 0 410 0 615 0 4 1 5 4 5z m512-312c59 0 107 48 107 109 0 60-48 110-108 109-60 0-107-48-107-109 0-60 48-109 108-109z m0 156c26 0 46-20 46-47 0-25-21-46-46-46-25 0-46 20-46 46 0 27 20 47 46 47z" horiz-adv-x="1000" />

<glyph glyph-name="retweet_arrows" unicode="&#xe849;" d="M249 190v261h101l-175 199-175-199h101v-301c0-55 45-100 100-100h449l-128 140h-273z m650 59v301c0 55-45 100-100 100h-449l128-140h273v-261h-101l175-199 175 199h-101z" horiz-adv-x="1000" />

<glyph glyph-name="reply_twitter" unicode="&#xe84a;" d="M979 238c-3 53-10 106-30 155-38 89-109 141-198 172-88 30-179 37-272 37-32 0-64 1-97 0-12 0-17 2-17 16 1 37 0 74 0 111 0 8 1 17-4 25-12 23-37 24-59 2-87-86-174-173-261-260-22-22-22-39 1-61 86-87 172-173 259-260 12-12 25-21 43-13 18 7 22 23 22 40-1 38 0 75-1 113 0 11 3 15 14 14 38 0 75 0 113 0 61 0 122-3 181-17 93-23 157-76 181-173 13-55 14-111 9-167 0-12-2-23-2-34 0-8 3-15 11-17 8-3 14 1 18 7 4 4 7 9 9 14 9 20 18 39 26 59 31 77 59 153 54 237z" horiz-adv-x="1000" />

<glyph glyph-name="videos" unicode="&#xe84b;" d="M669 407c-73 36-147 73-220 109-9 5-19 7-29 5-28-3-55-28-54-60 1-38 0-77 0-116 0-39 0-78 0-117 0-3 0-7 1-11 5-23 20-38 42-45 11-4 23-6 34 0 75 37 150 73 225 110 12 6 23 13 32 23 19 22 20 53 3 76-10 12-21 20-34 26z m-9-71c-4-4-8-6-13-9-73-35-146-71-219-106-6-3-12 1-12 7 0 39 0 78 0 117 0 39 0 77 0 116 0 8 6 11 13 8 72-35 143-71 215-106 6-3 12-6 16-11 6-5 6-10 0-16z m297 313c-12 27-32 47-59 59-10 5-22 8-34 9-241 0-482 0-723 0-9-1-19-3-28-6-30-12-51-33-64-63-5-9-7-20-8-30 0-180 0-359 0-539 1-11 4-21 8-31 12-28 32-48 59-60 10-4 21-7 32-8 241 0 483 0 724 0 10 1 20 3 29 6 30 12 51 33 65 62 4 10 7 21 8 31 0 179 0 359 0 538-1 11-4 22-9 32z m-66-606c-12-10-26-13-41-13-116 0-231 0-347 0-115 0-231 0-347 0-31 0-56 18-63 47-2 6-2 12-2 18 0 169 0 337 0 506 0 33 20 58 52 64 4 2 9 2 14 2 231 0 462 0 693 0 33 0 58-20 65-52 1-4 1-9 1-13 0-39 0-78 0-117 0-129 0-259 0-388 0-22-8-41-25-54z" horiz-adv-x="1000" />

<glyph glyph-name="videos_2" unicode="&#xe84c;" d="M943 402c-5 37-14 72-27 106-20 52-49 99-87 140-19 20-39 39-61 55-43 32-90 55-141 70-34 10-69 17-105 17 0 0 0 0 0 0-2 0-4 0-6 0-8 0-17 0-25 0-2 0-4 0-6 0 0 0 0 0 0 0-10 0-20-1-31-2-36-4-72-12-106-25-38-15-73-33-105-57-28-20-53-44-76-70-23-27-42-55-58-86-13-25-23-52-31-79-7-24-12-48-14-73-1-7-1-14-2-21 0-3 0-6 0-9 0-2 0-4 0-6 0-1 0-3 0-4 0-6 0-13 0-19 0-1 0-3 0-4 0-2 0-4 0-6 0-3 0-6 0-9 2-8 1-17 2-25 6-44 18-87 36-127 19-44 46-84 78-119 19-20 39-39 61-55 42-31 89-55 140-70 34-10 69-16 105-16 0-1 0-1 0-1 3 0 5 0 7 0 8 0 17 0 25 0 2 0 4 0 6 0 0 0 0 0 0 0 10 0 20 1 31 2 36 4 72 12 106 25 38 15 73 33 105 57 28 20 53 44 76 70 22 26 41 55 57 86 13 25 24 52 32 79 7 24 12 48 14 73 1 7 0 14 1 21 0 3 0 6 0 9 0 2 0 4 0 6 0 1 0 3 0 4 0 6 0 13 0 19 0 1 0 3 0 4 0 2 0 4 0 6 0 3 0 5 0 8-1 9 0 18-1 26z m-440-452c-219 0-398 179-398 399 0 219 179 398 399 398 219 0 398-180 398-399 0-220-179-398-399-398z m166 432c-80 46-159 92-239 137-4 3-7 5-12 6-19 7-38-3-44-23-2-5-2-11-2-16 0-45 0-91 0-136 0-46 0-92 0-137 0-5 0-9 1-13 4-21 20-33 41-30 7 1 13 4 19 7 78 45 156 90 234 136 7 3 13 8 17 14 12 16 10 34-3 47-4 3-8 6-12 8z m-254-166c0 88 0 175 0 263 75-44 151-88 227-132-76-44-151-87-227-131z" horiz-adv-x="1000" />

<glyph glyph-name="like_tweet" unicode="&#xe84d;" d="M996 548c-18 105-105 189-210 204-119 17-225-49-268-148-4-8-11-13-18-13-7 0-14 5-18 13-43 99-149 165-268 148-105-15-192-99-210-204-15-85 13-164 65-219 12-13 29-33 42-47 69-79 217-222 312-308 19-16 44-27 70-28 4-1 10-1 14 0 26 1 51 12 70 28 95 86 243 229 312 308 13 14 30 34 42 47 52 55 80 134 65 219z" horiz-adv-x="1000" />

<glyph glyph-name="arrows-cw" unicode="&#xe84e;" d="M843 261q0-3 0-4-36-150-150-243t-267-93q-81 0-157 31t-136 88l-72-72q-11-11-25-11t-25 11-11 25v250q0 14 11 25t25 11h250q14 0 25-11t10-25-10-25l-77-77q40-36 90-57t105-20q74 0 139 37t104 99q6 10 30 66 4 13 16 13h107q8 0 13-6t5-12z m14 446v-250q0-14-10-25t-26-11h-250q-14 0-25 11t-10 25 10 25l77 77q-82 77-194 77-75 0-140-37t-104-99q-6-10-29-66-5-13-17-13h-111q-7 0-13 6t-5 12v4q36 150 151 243t268 93q81 0 158-31t137-88l72 72q11 11 25 11t26-11 10-25z" horiz-adv-x="857.1" />

<glyph glyph-name="cw" unicode="&#xe84f;" d="M857 707v-250q0-14-10-25t-26-11h-250q-23 0-32 23-10 22 7 38l77 77q-82 77-194 77-58 0-111-23t-91-61-61-91-23-111 23-111 61-91 91-61 111-23q66 0 125 29t100 82q4 6 13 7 8 0 14-5l76-77q5-4 6-11t-5-13q-60-74-147-114t-182-41q-87 0-167 34t-136 92-92 137-34 166 34 166 92 137 136 92 167 34q82 0 158-31t137-88l72 72q17 18 39 8 22-9 22-33z" horiz-adv-x="857.1" />

<glyph glyph-name="sms" unicode="&#xe850;" d="M1178 585h-35v-381c0-60-34-113-103-113h-680v-19c0-52 60-105 121-105h520l198-117-29 117h8c61 0 89 53 89 105v422c0 53-28 91-89 91z m-817-436h577c70 0 134 43 134 102v478c0 59-64 121-134 121h-789c-69 0-149-62-149-121v-478c0-55 68-94 133-100l-43-161z m441 440a71 71 0 1 0-71-71 71 71 0 0 0 71 71z m-266 0a71 71 0 1 0-71-71 71 71 0 0 0 71 71z m-266 0a71 71 0 1 0-71-71 71 71 0 0 0 71 71z" horiz-adv-x="1267" />

<glyph glyph-name="download" unicode="&#xe851;" d="M931 264c31 0 56-25 56-56v-302c0-31-25-56-56-56h-860c-31 0-58 25-58 56v302c0 31 27 56 58 56s56-25 56-56v-245h749v245c0 31 24 56 55 56z m-469-126l-226 226c-23 23-23 56 0 79s55 22 78 0l132-130v481c0 31 24 56 55 56s56-25 56-56v-481l129 130c23 22 58 22 81 0s22-56 0-79l-227-226c-10-10-25-16-39-16s-29 6-39 16z" horiz-adv-x="1000" />

<glyph glyph-name="logout-1" unicode="&#xe852;" d="M-549-68c4 2 8 1 12 1 0-1 0-1 0-1-4 0-8 0-12 0z m12 0c0 0 0 0 0 1 3 0 5 0 8 0 0-1 0-1 0-1-3 0-5 0-8 0z m-48 0c3 1 6 1 8-1-2 0-5 0-8 0 0 1 0 1 0 1 0 0 0 0 0 0z m0 0c0 0 0 0 0-1-2 0-5 0-7 0 0 1 0 1 0 1 2 1 5 1 7 0z m794 377c129 0 276 0 405 0 24 0 39 11 44 34 0 1 1 1 1 1 0 4 0 8 0 12-1 3-1 5-2 7-6 18-21 29-40 29-18 0-36 0-53 0-113 0-245 0-358 0-2 0-4-1-5 1 0 0 2 2 3 3 16 16 33 32 49 49 21 21 14 56-13 67-15 7-33 4-45-9-13-13-26-26-39-39-27-27-55-55-83-83-18-19-18-43 0-62 41-40 81-81 122-122 16-16 40-17 57-3 18 16 19 44 2 61-16 16-31 32-47 47-2 2-3 4-5 6 2 1 4 0 7 1z m742 63c0 7-1 14-1 21-5 35-14 68-29 99-22 47-52 87-92 120-36 30-76 52-121 64-24 7-48 12-72 12 0 1 0 1 0 1-2 0-4 0-5 0-3 0-5 0-8 0-7 0-14 0-21 0-2 0-5 0-8 0 0 0-1 0-2 0-1-1-2-1-3-1-11 0-22-2-34-4-67-12-125-42-175-89-17-17-33-35-47-56-9-14-9-33 1-47 10-14 27-20 43-16 12 3 20 10 27 19 59 87 166 129 268 105 139-33 225-174 189-312-32-126-151-207-280-191-48 6-90 25-128 55-20 16-36 35-51 56-9 14-26 20-42 17-29-7-42-40-25-65 63-89 149-138 257-148 2 0 3 0 5 0 2 0 4 1 6-1 6 0 12 0 18 0 3 1 6 1 8 1 2 0 4 0 6 0 5 0 11 0 16 1 28 3 54 9 80 18 26 10 50 22 72 37 26 18 49 38 69 62 16 19 30 40 42 62 10 20 19 42 26 65 6 24 11 48 11 73l0 0 1 0c0 2 0 4 0 5 0 2 0 4 0 6 0 6 0 12 0 19 0 2 0 5 0 7 0 2 0 3 0 5-1 0-1 0-1 0z" horiz-adv-x="1000" />

<glyph glyph-name="allrounder" unicode="&#xe853;" d="M119-146c-12 5-18 4-28 10-33 19-58 45-77 77-5 8-8 17-10 25-5 18 0 33 13 45 3 2 5 5 8 8 177 177 355 354 532 532 2 1 4 3 5 4 9 9 9 9 19 1 21-18 53-17 72 3 91 90 182 181 273 272 3 3 6 5 4 10-1 2 1 8 3 8 3 1 8 0 10-2 13-12 26-25 39-38 6-5 11-10 16-16 2-3 3-8 2-11-1-2-6-2-9-3-3-1-7-1-9-4-66-65-131-130-196-195-26-26-51-51-76-77-20-20-21-52-2-73 7-8 6-10-1-17-182-182-364-363-545-545-10-10-21-16-35-16-3 1-6 1-8 2z m451 690c-2-3-4-6-6-9-177-177-354-354-531-530-2-3-5-6-7-8-8-7-10-16-8-26 2-6 3-11 6-16 19-35 45-63 80-80 28-14 36-6 50 8 178 178 355 355 533 533 2 2 4 4 6 6-20 30-20 59-1 87-11 11-23 22-34 33-28-19-57-19-88 2z m332 239c10-3 21-6 31-11 5-1 9-5 12-8 9 9 19 20 29 29-10 10-21 21-31 31-13-14-27-27-41-41z m-164-226c-11 3-21 6-32 10-4 2-8 6-12 9-6-7-14-15-21-22 10-10 21-21 31-31 11 11 23 22 34 34z m90 151c-8-8-16-16-24-24 10-4 21-7 31-11 4-2 8-5 10-7 7 7 16 16 24 24-9 3-20 6-30 10-5 2-8 5-11 8z m-82-142c8 8 16 16 24 24-9 3-19 6-29 10-5 2-9 5-13 8-8-8-16-16-24-24 10-3 21-7 32-11 4-1 7-5 10-7z m-10 52c10-4 21-7 31-11 5-2 9-5 13-8 7 8 16 16 24 24-10 3-21 6-31 10-4 2-9 6-13 9-7-7-16-15-24-24z m125 123c-7-8-16-16-24-24 10-3 21-7 31-11 5-1 8-5 11-8 8 7 16 16 25 24-11 4-23 8-34 12-4 1-6 5-9 7z m76 14c-11 4-22 7-33 11-4 2-7 6-10 8-8-7-16-16-25-24 10-3 22-7 32-11 5-1 8-5 12-8 7 7 15 15 24 24z m-168-104c11-3 22-7 32-11 4-1 8-5 11-8 8 8 16 16 25 24-10 4-21 7-31 11-5 2-9 6-12 8-8-7-16-16-25-24z m-309-331c3-2 6-3 7-5 1-2 1-5 0-8 0-2-3-4-5-6-111-111-222-222-333-333-2-2-4-5-6-5-3-1-7-1-9 1-2 1-2 6-1 9 0 2 3 3 4 5 112 112 223 223 334 334 3 3 6 5 9 8z m76 65c12 8 23 16 34 25 28 20 55 40 82 60 3 2 8 3 11 2 6-2 6-9-1-14-18-13-35-26-53-40-36-26-72-52-108-79-4-3-8-5-13-1-4 4-2 9 1 13 39 53 77 105 116 158 1 1 2 2 2 3 3 5 8 7 12 4 6-4 4-9 1-13-25-34-50-68-75-102-3-5-7-10-11-15 1 0 2-1 2-1z m144-399c-2 0-5-1-5-4-3-16-9-31-20-48-1-3-1-5 2-7 0 0 1 0 2 0 2 0 3 0 4 2 11 18 18 34 21 51 0 3-1 5-4 6z m-7 111c-26 26-62 41-99 41-38 0-74-15-100-41-27-27-42-62-42-101 0-37 15-73 42-99 26-27 62-42 100-42 37 0 73 15 99 42 27 26 42 62 42 99 0 38-15 74-42 101z m-231-101c0 73 59 133 132 133 21 0 42-5 60-15l-178-178c-9 18-14 39-14 60z m55-108l12 12-6 6-13-12c-7 6-13 12-19 19l12 12-6 6-11-11c-2 3-3 5-5 8l181 182c3-2 6-4 8-5l-7-7 7-6 7 7c7-6 13-12 19-19l-7-7 6-6 6 6c2-2 4-5 5-7l-181-182c-3 1-5 3-8 4z m77-24c-22 0-43 5-61 15l178 178c9-18 15-39 15-61 0-73-60-132-132-132z" horiz-adv-x="1000" />

<glyph glyph-name="keeper" unicode="&#xe854;" d="M99 730h-39v0c-33 0-60-27-60-60v-820h39v820c0 12 9 21 21 21h39c12 0 21-9 21-21v-820h39v820c0 33-27 60-60 60z m641 0h-42v0c-33 0-60-27-60-60v-820h42v820c0 12 6 21 18 21h42c9 0 18-9 18-21v-820h42v820c0 33-27 60-60 60z m-321 0h-39v0c-33 0-60-27-60-60v-820h39v820c0 12 9 21 21 21h39c12 0 21-9 21-21v-820h39v820c0 33-27 60-60 60z m-359 39h60v-18c0-12 9-21 21-21h198c12 0 21 9 21 21v18h81v-18c0-12 9-21 18-21h201c12 0 21 9 21 21v18h60c27 0 27 42 0 42h-60v18c0 12-9 21-21 21h-201c-9 0-18-9-18-21v-18h-81v18c0 12-9 21-21 21h-198c-3 0-3 0-3 0-9 0-18-9-18-21v-18h-60c0 0 0 0-3 0-27-3-24-42 3-42z m420 42h159v-42h-159v42l0 0z m-320 0h161v-42h-161c0 0 0 42 0 42z" horiz-adv-x="800" />

<glyph glyph-name="ball" unicode="&#xe855;" d="M878 312c-9 2-18-4-19-12-12-57-33-110-71-172-4-7-2-17 6-22 3-1 6-2 8-2 6 0 11 3 14 8 39 65 62 122 74 182 2 8-4 17-12 18z m-25 392c-94 94-220 146-353 146-134 0-260-52-354-146-94-94-146-219-146-354 0-133 52-259 146-353 94-95 220-147 354-147 133 0 258 52 353 147 95 95 147 220 147 353 0 134-52 260-147 354z m-821-354c0 258 210 468 468 468 76 0 148-18 212-51l-629-629c-32 64-51 136-51 212z m198-382l41 42-23 22-44-44c-25 20-47 43-67 67l42 43-22 22-40-39c-6 9-12 18-18 28l642 642c10-6 19-12 28-18l-23-24 22-22 27 26c24-20 46-42 66-66l-25-26 23-22 22 23c6-9 12-18 17-27l-643-643c-9 5-17 10-25 16z m270-86c-78 0-151 19-215 53l630 631c34-65 53-138 53-216 0-258-210-468-468-468z" horiz-adv-x="1000" />

<glyph glyph-name="bat" unicode="&#xe856;" d="M119-146c-12 5-18 4-28 10-33 19-58 45-77 77-5 8-8 17-10 25-5 18 0 33 13 45 3 2 5 5 8 8 177 177 355 354 532 532 2 1 4 3 5 4 9 9 9 9 19 1 21-18 53-17 72 3 91 90 182 181 273 272 3 3 6 5 4 10-1 2 1 8 3 8 3 1 8 0 10-2 13-12 26-25 39-38 6-5 11-10 16-16 2-3 3-8 2-11-1-2-6-2-9-3-3-1-7-1-9-4-66-65-131-130-196-195-26-26-51-51-76-77-20-20-21-52-2-73 7-8 6-10-1-17-182-182-364-363-545-545-10-10-21-16-35-16-3 1-6 1-8 2z m451 690c-2-3-4-6-6-9-177-177-354-354-531-530-2-3-5-6-7-8-8-7-10-16-8-26 2-6 3-11 6-16 19-35 45-63 80-80 28-14 36-6 50 8 178 178 355 355 533 533 2 2 4 4 6 6-20 30-20 59-1 87-11 11-23 22-34 33-28-19-57-19-88 2z m332 239c10-3 21-6 31-11 5-1 9-5 12-8 9 9 19 20 29 29-10 10-21 21-31 31-13-14-27-27-41-41z m-164-226c-11 3-21 6-32 10-4 2-8 6-12 9-6-7-14-15-21-22 10-10 21-21 31-31 11 11 23 22 34 34z m90 151c-8-8-16-16-24-24 10-4 21-7 31-11 4-2 8-5 10-7 7 7 16 16 24 24-9 3-20 6-30 10-5 2-8 5-11 8z m-82-142c8 8 16 16 24 24-9 3-19 6-29 10-5 2-9 5-13 8-8-8-16-16-24-24 10-3 21-7 32-11 4-1 7-5 10-7z m-10 52c10-4 21-7 31-11 5-2 9-5 13-8 7 8 16 16 24 24-10 3-21 6-31 10-4 2-9 6-13 9-7-7-16-15-24-24z m125 123c-7-8-16-16-24-24 10-3 21-7 31-11 5-1 8-5 11-8 8 7 16 16 25 24-11 4-23 8-34 12-4 1-6 5-9 7z m76 14c-11 4-22 7-33 11-4 2-7 6-10 8-8-7-16-16-25-24 10-3 22-7 32-11 5-1 8-5 12-8 7 7 15 15 24 24z m-168-104c11-3 22-7 32-11 4-1 8-5 11-8 8 8 16 16 25 24-10 4-21 7-31 11-5 2-9 6-12 8-8-7-16-16-25-24z m-309-331c3-2 6-3 7-5 1-2 1-5 0-8 0-2-3-4-5-6-111-111-222-222-333-333-2-2-4-5-6-5-3-1-7-1-9 1-2 1-2 6-1 9 0 2 3 3 4 5 112 112 223 223 334 334 3 3 6 5 9 8z m76 65c12 8 23 16 34 25 28 20 55 40 82 60 3 2 8 3 11 2 6-2 6-9-1-14-18-13-35-26-53-40-36-26-72-52-108-79-4-3-8-5-13-1-4 4-2 9 1 13 39 53 77 105 116 158 1 1 2 2 2 3 3 5 8 7 12 4 6-4 4-9 1-13-25-34-50-68-75-102-3-5-7-10-11-15 1 0 2-1 2-1z" horiz-adv-x="1000" />

<glyph glyph-name="international-player" unicode="&#xe857;" d="M868 584c46 55 94 109 113 181 0 8 0 15 0 23-1 1-1 3-2 4-6 24-24 38-49 39-20 1-38-6-55-14-33-15-62-35-90-57-70-54-133-115-195-177-6-7-11-6-18-3-128 53-256 107-384 160-16 7-20 6-33-7-24-24-48-48-73-72-13-13-12-25 3-36 31-23 62-45 93-67 5-3 7-6 1-12-12-10-21-23-25-38-4-11-7-23 3-32 11-9 22-3 32 3 15 9 27 22 35 38 3 4 5 5 9 1 9-6 18-13 27-19 5-4 5-6 0-10-13-12-25-26-33-42-5-12-9-23-9-35 1-19 13-28 31-23 11 2 20 8 29 14 16 13 29 28 38 46 3 7 5 6 10 3 25-19 50-37 76-55 7-5 7-8 2-14-44-50-87-101-128-153-4-6-8-7-14-5-52 15-104 29-156 44-13 4-22 2-31-8-15-15-30-30-45-45-5-4-9-9-11-14 0-4 0-8 0-11 2-6 4-13 11-17 5-3 11-7 16-10 39-25 79-50 118-75 5-4 8-8 5-15-2-6-3-12-3-19-2-20 12-37 32-38 7 0 15 1 22 3 12 3 13 3 20-8 27-42 53-85 80-127 5-8 11-13 20-15 4 0 8 0 11 0 6 2 10 6 14 11 15 14 29 30 45 44 10 10 12 19 8 33-14 51-29 104-43 156-1 4-3 8 2 11 54 42 107 87 158 132 5 3 6 2 9-1 17-24 33-48 51-71 4-5 2-7-3-10-22-14-37-33-48-57-4-9-7-19-7-30 1-19 13-28 31-23 17 4 30 15 42 27 11 10 19 22 26 35 9-12 18-24 26-36 3-3 0-5-2-7-10-10-19-20-25-33-3-8-6-17-6-26 1-14 10-21 24-18 10 3 18 8 26 14 6 6 12 13 19 20 2-3 4-5 6-8 24-33 47-66 71-98 10-15 23-16 35-3 24 24 48 48 72 72 14 14 15 17 7 35-53 128-106 256-160 384-3 8-2 12 4 17 47 47 93 93 135 144z m-183-159c54-128 108-258 162-386 3-8 2-12-4-18-13-13-27-27-40-40-6-6-8-6-13 0-72 100-143 200-215 299-4 6-9 13-13 19-10 13-22 14-34 3-44-38-88-77-134-113-17-15-35-29-53-43-10-7-12-16-9-27 15-53 30-107 45-161 2-6 1-11-4-15-6-6-12-11-17-17-5-6-7-4-10 1-28 44-56 89-84 133-11 16-18 18-36 9-3-2-7-3-13-6 3 6 5 10 7 14 8 16 6 24-9 34-44 28-87 55-131 83-3 2-5 4-9 7 9 8 17 16 25 24 4 5 8 3 12 1 54-14 108-29 161-44 14-4 20-2 29 9 49 65 101 126 155 186 11 13 10 25-4 35-105 76-210 151-314 226-3 2-7 5-11 8 18 18 35 35 52 52 4 4 8 1 11 0 52-22 103-43 155-65 77-32 155-65 233-97 14-6 19-5 31 6 62 64 126 126 196 181 27 21 55 41 86 57 11 5 22 10 35 11 13 2 20-4 18-18-3-18-11-34-20-49-26-47-60-87-95-127-43-49-88-96-135-141-10-11-11-17-6-31z" horiz-adv-x="1000" />

<glyph glyph-name="international-player2" unicode="&#xe858;" d="M961 299c-18 119-78 211-181 274-5 2-11 3-10 11 1 7 6 7 11 9 44 21 89 40 134 60 9 4 17 8 24 15 19 18 28 40 22 66-6 23-23 37-47 41-5 0-9 2-13 6-33 35-72 42-116 23-158-70-316-140-475-211-9-4-16-4-26 1-50 30-101 59-151 88-10 7-21 8-33 3-15-8-30-14-45-21-21-9-25-26-12-44 32-43 64-87 96-130 6-9 14-15 25-17 34-9 67-19 101-27 12-3 12-6 7-16-30-54-44-113-45-175-1-13 1-25 2-38 8-83 40-155 98-215 98-101 217-136 354-106 181 40 306 221 280 403z m-101 126c6-10 11-20 17-29 5-8 4-12-6-11-13 0-26 0-39 0-14 0-26 0-40 0-7-1-10 2-12 9-9 44-22 86-45 124-2 4-3 7 2 10 4 4 8 5 14 2 45-27 81-62 109-105z m-679 111c-7-3-11-2-15 4-19 26-39 52-58 78-2 3-9 7-4 11 4 4 10 6 15 2 21-12 41-24 61-35 19-11 38-22 59-34-21-10-40-18-58-26z m59-30c38 17 73 33 108 48 153 68 306 135 458 203 30 12 48 7 63-20 7-12 16-16 29-14 3 1 9 4 11-2 2-4 0-9-3-13-4-4-9-6-14-8-42-19-85-38-128-57-6-3-10-3-16 3-26 27-58 33-93 18-69-31-138-61-207-92-16-7-22-20-16-34 6-14 19-19 36-12 7 3 14 6 21 8 2 1 5 4 7 0 1-2 2-7-2-9-3-1-6-2-9-3-33-15-67-30-101-45-7-3-13-4-21-2-40 11-80 21-123 31z m379-40c0 6 3 8 8 10 17 8 35 16 52 24 5 2 8 2 11-3 18-33 30-67 39-103 1-8-2-9-8-9-16 0-32 0-47 0-16 0-31 0-46 0-6 0-9 2-8 8-1 24 0 49-1 73z m-50-210c0-23 0-47 0-69 0-8-2-11-9-11-34 1-68 0-102 0-4 0-8 1-9 7-5 48-7 95 0 143 1 8 5 8 11 8 33 0 65 0 98 0 8 0 11-2 11-11 0-22 0-45 0-67z m-153 176c-3-14-6-27-9-41-1-5-4-6-8-6-28 0-57 0-86 0-7 0-7 4-4 8 6 11 12 21 18 32 2 4 5 6 9 4 1 0 1-1 1-1 27-9 53-14 78 8 1-2 1-3 1-4z m-131-247c-9 46-11 91 0 137 2 9 5 13 15 12 29 0 57 0 86 0 9 0 13-1 12-11-5-46-6-91-1-135 1-9-2-12-11-12-15 1-29 0-44 0-16 0-32 0-47 0-6 0-9 2-10 9z m23-59c30 0 60 0 91 0 5 0 8-2 9-7 11-54 30-105 61-152-53 10-151 106-161 159z m250-178c-17 10-30 23-42 39-30 41-47 88-59 139 36 0 71 0 106 0 8 0 6-7 6-11 0-41 0-82 0-123 0-13-1-25 0-38 1-11-3-10-11-6z m-3 437c-14 1-27 0-40 0-15 0-30 0-45 0-10 0-12 3-8 12 3 10 6 20 8 30 4 28 20 44 47 51 6 2 9 3 14-1 8-6 17-12 26-12 12-2 12-8 12-18-1-16-1-32 0-48 2-12-3-15-14-14z m36 132c-6-2-11-4-16-4-14 0-24 10-27 24-3 12 3 25 16 30 19 9 39 17 58 26 18 8 36 16 54 23 17 8 34 2 40-14 7-15 0-30-18-38-36-16-72-31-107-47z m28-329c1 23 0 45 0 68 0 23 1 45 0 68 0 8 3 10 11 10 33 0 67 0 100 0 5 0 9-1 10-8 5-46 6-93 0-140-1-9-5-10-12-10-32 0-64 0-97 0-9 0-12 3-12 12z m43-213c-11-13-24-24-43-31 0 60 0 117 0 174 0 7 4 8 10 8 31 0 62 0 94 0 7 0 8-2 7-9-14-52-33-101-68-142z m57-9c25 38 41 76 53 117 3 11 6 23 9 35 1 5 3 8 9 8 30 0 60 0 91 0-19-61-91-134-162-160z m184 218c-1-6-4-8-11-8-15 0-31 0-46 0-15 0-30 0-45 0-7 0-11 1-10 10 4 46 4 92 0 138-1 9 2 10 10 10 30 0 59 0 89 0 7 0 11-1 13-9 12-47 11-94 0-141z" horiz-adv-x="1000" />

<glyph glyph-name="bullet" unicode="&#xe859;" d="M500-150c-276 0-500 224-500 500s224 500 500 500 500-224 500-500-224-500-500-500z" horiz-adv-x="1000" />

<glyph glyph-name="hand-1" unicode="&#xe85a;" d="M219 410c0 9 0 56 0 71 0 90 0 180 0 270 0 59 37 99 92 99 53 0 89-39 90-98 0-38 0-76 0-115 41 25 80 3 108-31 2-3 10-6 15-4 64 26 115 3 131-70 10 1 21 3 32 3 50 2 93-35 94-84 1-107 1-214 0-320-1-15-10-31-20-42-46-50-61-108-56-175 5-58-4-64-61-64-107 0-214 0-320 0-42 0-53 9-49 49 10 80-16 144-62 208-51 71-97 146-143 220-37 60-1 135 68 136 42 1 57-30 81-53z m434-502c-25 89 13 155 65 216 1 2 2 3 3 5 2 6 5 11 5 17 0 97 0 195 0 293 0 22-12 39-36 40-24 0-36-15-37-38-1-23 1-46-2-69-2-9-15-23-24-23-9-1-20 4-28 19-3 7-3 17-3 26-1 39-1 78 0 117 0 24-8 43-34 43-26 1-34-20-35-43 0-28 0-56 0-84 0-19-4-37-28-37-24 0-29 18-29 37 0 38 0 76 0 114 1 23-7 42-32 45-21 3-35-17-36-46 0-37 0-73 0-110 0-21-3-41-29-40-26 0-28 20-28 41 0 95 0 191 0 287 0 15 0 30-2 44-4 27-22 30-33 29-10 0-24-4-32-28-3-8-2-19-2-29 0-131 0-261 0-392 0-18-2-38-22-39-12-1-28 12-37 22-16 18-28 39-41 60-12 19-28 30-49 17-22-13-19-32-6-51 4-6 7-12 11-18 58-90 116-181 176-270 16-25 25-49 23-78-2-24 0-49 0-75 107-2 210-2 322-2z" horiz-adv-x="838" />

<glyph glyph-name="hand-2" unicode="&#xe85b;" d="M673 549c5-99 1-340 0-439 0-13-9-28-18-39-43-46-57-99-52-162 5-53-4-59-57-59-99 0-198 0-297 0-39 0-50 8-45 46 8 73-16 133-58 192-47 66-89 136-132 205-35 55-1 125 63 126 38 1 53-28 74-49 0 8 1 51 1 66 0 83-1 166 0 250 0 55 35 97 85 92 15-2 38-9 38-9 8 54 45 71 45 71 28 23 85 4 100-26 21-40 10-98 15-96 59 24 114 0 121-96 0 0 24 18 73 0 0 0 41-21 44-73z m-119-645c-23 82 12 143 60 200 2 2 3 3 3 5 2 5 5 10 5 15 0 91 0 330 0 420 0 21-11 37-33 37-23 1-33-14-35-35-1-21 2-191-2-212-1-9-13-21-21-22-9 0-20 4-27 18-3 7-2 16-3 24 0 37 0 242 0 279 1 22-6 40-31 40s-32-18-32-40c0-26 0-222 0-248 0-18-4-35-26-35-22 0-27 17-27 35 0 35 0 333 0 368 0 22-6 39-30 42-19 3-33-15-33-42 0-34 0-331 0-366 0-19-3-37-27-37-24 1-26 20-26 38 0 89 0 178 0 267 0 14-1 28-2 41-4 25-21 27-31 27-9 0-22-4-30-26-2-7-2-18-2-27 0-122 0-242 0-364 0-16-1-35-20-36-11-1-26 11-35 21-14 16-25 36-37 55-11 17-26 28-46 16-20-12-18-30-5-48 3-5 6-11 10-16 54-84 108-168 163-251 15-23 24-45 22-72-2-23 0-46 0-70 98-1 194-1 298-1z" horiz-adv-x="675" />

<glyph glyph-name="logout-2" unicode="&#xe85c;" d="M790 198c-27 0-46-20-46-52 0-38 0-77 0-115 0-59-29-88-89-88-158 0-316 0-474 0-59 0-88 29-88 88 0 215 0 429 0 644 0 51 31 82 82 82 163 0 325 0 487 0 52 0 83-31 83-82 0-43 0-85 0-128 1-35 35-56 67-40 18 9 25 24 25 44 0 43 1 87 0 131-4 100-75 168-175 168-164 0-328 0-492 0-98-1-170-73-170-171 0-109 0-218 0-328 0-112 0-224 0-336 0-82 59-149 140-162 11-2 22-3 33-3 163 0 327 0 490 0 101 0 172 72 173 172 1 41 1 82 0 123 1 32-18 53-46 53z m-354-49c20-21 47-20 70 3 53 53 107 106 160 160 27 27 26 52 0 78-52 52-104 103-156 154-4 5-9 9-14 12-22 15-46 12-63-8-16-18-15-43 2-62 25-26 51-51 77-77 4-3 7-7 12-14-10 0-17 0-23 0-84 0-167 1-251 0-37 0-59-27-50-60 6-22 24-33 55-33 79 0 159 0 238 0 9 0 18 0 27 0 1-2 2-3 2-5-27-27-54-54-82-81-21-22-23-48-4-67z" horiz-adv-x="838" />

<glyph glyph-name="rss" unicode="&#xe85d;" d="M923 342c-76 177-199 312-370 401-132 70-274 100-422 107-14 0-29 0-43 0-41-1-72-24-83-60-11-36 1-72 32-95 17-12 37-16 58-16 102-1 203-16 299-52 180-67 306-189 378-368 41-102 56-210 57-319 0-52 37-89 85-89 48-1 86 38 86 89-1 138-22 274-77 402z m-257-279c-5 32-12 64-21 95-38 127-111 227-228 292-104 58-217 77-334 76-46-1-83-41-83-85 0-48 37-83 85-86 43-3 86-6 129-13 61-10 117-35 166-75 75-64 107-149 119-244 4-34 4-68 8-102 5-41 43-71 85-71 42 1 79 34 82 75 2 14 1 28 1 42 0 0 0 0 1 0-3 32-5 65-10 96z m-494 130c-95 0-172-78-172-172 0-94 78-171 172-171 94 0 171 77 171 171 0 94-77 171-171 172z" horiz-adv-x="1000" />

<glyph glyph-name="shop" unicode="&#xe85e;" d="M829 541c-252 0-501 0-751 0-26-231-52-461-78-691 304 0 605 0 907 0-26 231-52 461-78 691z m-517 28c0 33 0 65 0 97 1 77 74 141 150 133 80-8 131-64 132-144 1-28 0-57 0-86 18 0 34 0 50 0 0 38 3 76-1 113-7 78-61 139-138 161-73 21-152-5-201-62-53-63-45-138-43-212 18 0 34 0 51 0z" horiz-adv-x="907" />

<glyph glyph-name="edit" unicode="&#xe85f;" d="M886 321c-10 14-24 20-41 14-19-7-27-20-27-41 0-104 0-208 0-313 0-39-14-53-53-53-212 0-424 0-636 0-38 0-52 14-52 51 0 212 0 424 0 637 0 40 13 53 53 53 103 0 206 0 309 0 30 0 46 15 46 40 0 21-19 37-45 37-107 0-214 1-321 0-73-1-119-50-119-122 0-218 0-435 0-653 0-71 48-119 119-119 109 0 218 0 327 0 109 0 218 0 327 0 71 0 120 47 121 117 1 108 0 216 0 324 0 9-3 20-8 28z m93 424c-27 29-55 56-83 84-26 26-45 26-71 0-116-116-232-232-348-349-8-8-15-18-19-28-18-47-36-95-54-142-6-17-7-33 7-47 14-14 30-13 47-6 47 17 94 34 141 52 9 4 18 9 25 16 119 118 238 236 356 355 8 8 13 20 20 32-7 12-13 24-21 33z m-91-49c-92-92-185-183-275-276-30-31-63-53-107-61 12 36 24 69 52 96 98 94 193 191 288 286 5 5 9 9 14 14 14-15 27-29 42-44-4-4-9-10-14-15z" horiz-adv-x="1000" />

<glyph glyph-name="power" unicode="&#xe860;" d="M797 622c-26 28-56 52-87 74-32 22-76 11-96-21-23-35-12-75 20-100 30-23 59-48 81-77 78-105 84-218 26-333-102-202-384-231-526-55-119 149-89 353 68 463 38 27 47 69 23 104-23 33-66 40-102 15-129-92-198-216-204-389 4-25 7-63 15-100 63-276 371-429 628-314 288 129 370 502 154 733z m-338-343c39-1 72 31 72 71 0 142 0 284 0 425 0 44-31 76-71 75-41 0-70-32-70-76 0-69 0-138 0-208 0-71-1-142 0-214 0-41 31-73 69-73z" horiz-adv-x="919" />

<glyph glyph-name="double-arrow-up" unicode="&#xe861;" d="M984-68c6-7 10-16 10-25 0-9-3-18-10-25-14-13-36-13-50 0l-434 435-434-435c-14-13-36-13-50 0s-13 36 0 50l459 460c14 13 36 13 50 0l459-460z m0 426c6-7 10-16 10-25 0-9-3-18-10-25-14-13-36-13-50 0l-434 435-434-435c-14-13-36-13-50 0-13 14-13 36 0 50l459 460c14 13 36 13 50 0l459-460z" horiz-adv-x="1000" />

<glyph glyph-name="heart" unicode="&#xe862;" d="M936 672c-147 190-436 78-436-116 0 194-289 306-436 116-152-198-3-543 436-742 439 199 588 544 436 742z" horiz-adv-x="1000" />

<glyph glyph-name="photo-icon" unicode="&#xe863;" d="M576 579c-48 0-87-39-87-87s39-87 87-87 87 39 87 87-39 87-87 87z m-4-44c0 0 1 0 1 0 0 0 1 0 1 0l2 0c24 0 44-20 44-44s-20-43-44-43c-24 0-43 19-43 43 0 23 17 42 39 44z m353 174h-850c-36 0-65-29-65-65v-588c0-36 29-65 65-65h850c36 0 65 29 65 65v588c0 36-29 65-65 65z m21-499l-182 146c-4 3-9 5-14 5-4 0-9-1-12-4l-161-110-216 174c-5 5-12 6-18 5-3-1-6-2-8-3l-281-195v416c0 12 9 22 21 22h850c12 0 21-10 21-22v-434z m-357-8l160 110 198-157v-99c0-12-10-22-22-22h-850c-12 0-21 10-21 22v120l293 202 215-175c8-6 19-7 27-1z" horiz-adv-x="1000" />

<glyph glyph-name="stadium" unicode="&#xe864;" d="M491 265c-135 0-263 10-360 28-41 8-74 17-100 27l26-190c1-6 6-14 10-18 34-29 109-64 254-79v157c0 15 12 27 27 27h285c15 0 27-12 27-27v-158c147 15 220 49 256 80 5 3 9 12 10 17l26 191c-26-10-60-19-101-27-96-18-224-28-360-28z m360 175c-96-18-224-28-360-28-135 0-263 10-360 28-47 9-85 20-111 31-4 2-7 3-10 5l16-119c2-1 4-2 7-3 24-11 60-21 104-29 95-18 220-27 354-27 134 0 260 9 354 27 45 8 81 18 105 29 3 1 5 2 7 3l16 119c-3-1-6-3-10-4-26-12-64-23-112-32z m142 233l-91 53c-2 1-5 2-7 2-9 0-16-8-16-16v-145c-11 2-22 4-34 7-90 17-209 26-336 27v49l82 48c5 3 5 8 0 11l-92 54c-2 1-4 1-7 1-9 0-16-7-16-16v-147c-128 0-248-10-339-27-11-2-21-4-31-6v45l82 49c5 3 5 8 0 11l-91 53c-2 1-4 2-7 2-9 0-16-8-16-16v-153c-16-4-30-9-41-14-25-11-30-20-30-22 0-1 0-1 1-2 2-4 10-11 29-20 24-11 60-21 105-29 1 1 2 1 4 2 78 18 209 29 349 29 141 0 273-11 351-30 1 0 2-1 3-1 0 0 1 0 1 0 44 8 81 18 105 29 19 8 27 16 29 19 0 1 1 2 1 3 0 2-6 11-30 22-11 4-24 9-39 13v55l81 49c6 3 6 8 0 11z m-220-212c-76 11-176 17-283 17-106 0-206-6-281-17 82-11 180-17 283-17 102 1 199 6 281 17z m-91-480l-21 7-16 5-17 5v186h-39v-139h-195v139h-40v-186l-16-5-17-5-20-7c-6-2-11-8-11-14v-21c0-6 5-10 11-10h379c6 0 11 5 11 10v21c1 6-4 12-9 14z" horiz-adv-x="1000" />

<glyph glyph-name="coach" unicode="&#xe865;" d="M504-104c21 53 40 102 59 150 16 41 28 84 48 123 25 48 22 97 13 147-2 13-3 27-4 41 55-23 109-45 162-70 47-21 59-69 70-113 14-57 22-117 29-176 5-48-4-59-48-76-82-31-168-46-255-54-146-15-287 11-425 59-24 8-35 24-34 46 3 90 14 179 51 263 16 37 46 53 80 67 44 18 88 37 131 56 0-19 3-43 0-66-5-44 3-85 19-126 33-81 62-163 93-244 2-8 6-15 11-27z m184 770c-2-42 3-85-7-125-16-60-36-120-85-166-66-61-147-59-201 12-23 29-37 66-54 101-8 18-16 39-19 59-2 18 2 37 3 55 1 9 1 18-1 27-14 96 15 154 109 200 19 9 45 9 67 5 37-7 73-19 107-34 56-23 83-72 81-134z m-186-713c-14 81-27 160-40 240 38 34 46 35 75 9 5-4 8-12 7-17-11-76-24-152-36-228-1-1-3-2-6-4z m2 274c-18 29-34 54-50 78 34 0 67 0 101 0-16-24-32-49-51-78z" horiz-adv-x="1000" />

<glyph glyph-name="double-arrow-down" unicode="&#xe866;" d="M984 768c6 7 10 16 10 25s-3 18-10 25c-14 13-36 13-50 0l-434-435-434 435c-14 13-36 13-50 0s-13-36 0-50l459-460c14-13 36-13 50 0l459 460z m0-426c6 7 10 16 10 25 0 9-3 18-10 25-14 13-36 13-50 0l-434-435-434 435c-14 13-36 13-50 0-13-14-13-36 0-50l459-460c14-13 36-13 50 0l459 460z" horiz-adv-x="1000" />

<glyph glyph-name="double-arrow-left" unicode="&#xe867;" d="M918-134c7-6 16-10 25-10 9 0 18 3 25 10 13 14 13 36 0 50l-435 434 435 434c13 14 13 36 0 50s-36 13-50 0l-460-459c-13-14-13-36 0-50l460-459z m-426 0c7-6 16-10 25-10 9 0 18 3 25 10 13 14 13 36 0 50l-435 434 435 434c13 14 13 36 0 50-14 13-36 13-50 0l-460-459c-13-14-13-36 0-50l460-459z" horiz-adv-x="1000" />

<glyph glyph-name="double-arrow-right" unicode="&#xe868;" d="M82 834c-7 6-16 10-25 10s-18-3-25-10c-13-14-13-36 0-50l435-434-435-434c-13-14-13-36 0-50 14-13 36-13 50 0l460 459c13 14 13 36 0 50l-460 459z m426 0c-7 6-16 10-25 10-9 0-18-3-25-10-13-14-13-36 0-50l435-434-435-434c-13-14-13-36 0-50 14-13 36-13 50 0l460 459c13 14 13 36 0 50l-460 459z" horiz-adv-x="1000" />

<glyph glyph-name="star" unicode="&#xe869;" d="M549 834l133-316 341-29c24-3 34-32 16-48l-259-224 77-334c6-23-20-41-40-29l-293 177-294-177c-20-12-45 6-40 29l78 334-259 224c-17 16-8 45 16 48l341 29 133 316c9 22 40 22 50 0z" horiz-adv-x="1047" />

<glyph glyph-name="users3" unicode="&#xe86a;" d="M387 198c20 24 51 39 85 39h56c34 0 65-15 85-39 21 24 51 39 85 39h57c63 0 113-51 113-114v-127c0-16-12-29-28-29h-680c-16 0-28 13-28 29v127c0 63 50 114 113 114h57c33 0 64-15 85-39l0 0z m198-174v99c0 32-25 57-57 57h-56c-32 0-57-25-57-57v-99h170z m227 0v99c0 32-26 57-57 57h-57c-31 0-56-25-56-57v-99h170z m-454 0v99c0 32-25 57-56 57h-57c-31 0-57-25-57-57v-99h170z m-283 652v-439h14c16 0 28-13 28-29s-12-28-28-28h-42c-16 0-29 13-29 28v496c0 16 13 28 29 28h906c16 0 29-12 29-28v-496c0-16-13-28-29-28h-42c-16 0-29 12-29 28s13 28 29 28h14v440h-850z m425-397c-47 0-85 38-85 85s38 85 85 85 85-38 85-85-38-85-85-85z m0 57c16 0 28 13 28 28s-12 29-28 29-28-13-28-29 12-28 28-28z m227-57c-47 0-85 38-85 85s38 85 85 85 85-38 85-85-38-85-85-85z m0 57c15 0 28 13 28 28s-13 29-28 29c-16 0-29-13-29-29s13-28 29-28z m-454-57c-47 0-85 38-85 85s38 85 85 85 85-38 85-85-38-85-85-85z m0 57c16 0 29 13 29 28s-13 29-29 29-28-13-28-29 13-28 28-28z" horiz-adv-x="1000" />

<glyph glyph-name="home" unicode="&#xe86b;" d="M500 733c-7 0-14-2-21-7l-442-348c-11-12-19-36-8-51 12-15 37-17 51-4l420 331 420-331c14-13 39-11 50 4 10 14 7 40-8 51l-160 127v194c0 19-16 35-35 35h-93c-20 0-35-16-35-35v-66l-118 93c-7 5-14 8-21 7z m209-69h23v-105l-23 19v86z m-488-271l-70-55v-337c0-19 16-35 35-35h209c20 0 35 16 35 35v128c0 39 31 70 70 70 39 0 70-31 70-70v-128c0-19 15-35 35-35h209c19 0 35 16 35 35v337l-70 55v-356h-139v93c0 76-63 139-140 139s-139-63-139-139v-93h-140v356l0 0z" horiz-adv-x="1000" />

<glyph glyph-name="flag" unicode="&#xe86c;" d="M211 324h193v-101h516c16 0 32 8 40 22 8 14 8 32-1 46l-102 164 103 165c8 14 8 31 0 46s-24 22-40 22h-263v112h-461c-31 0-56-25-56-55v-387-35-423h71v424z m663 295l-100-163 100-163h-399v31h183v295h216z m-663 111h377v-335h-377v335z" horiz-adv-x="1000" />

<glyph glyph-name="award" unicode="&#xe86d;" d="M664 576c-12 1-23-8-23-19l-3-32c-2-12 7-24 19-24h1c12 0 20 9 22 21l3 32c1 10-7 20-19 22z m16 166c-12 2-23-7-23-19l-10-104c-2-12 7-23 19-23h1c12 0 20 8 22 20l10 104c1 11-7 21-19 22z m263 16h-166l3 34c0 5-1 11-5 17-5 3-10 6-16 6h-517c-6 0-12-3-16-8s-6-10-6-17l3-33h-166c-11 1-21-9-21-21v-171c0-119 97-216 216-216 26 0 48-22 48-48 0-26-22-48-48-48h-15v36c0 12-10 22-21 22-12 0-22-10-22-22v-58c0-12 10-22 22-22h36c51 0 91 41 91 92 0 4 0 7-1 11 22-20 46-36 73-48v-121c-45-13-80-50-87-98h-41c-12 0-22-10-22-22v-116c0-12 10-22 22-22h429c12 0 22 10 22 22v116c0 11-10 21-22 21h-42c-9 47-42 84-87 98v123c26 12 49 28 71 48 0-4-1-7-1-12 0-50 40-91 91-91h36c12 0 22 10 22 22v58c0 11-10 21-22 21s-21-10-21-21v-37h-15c-26 0-48 22-48 48s22 48 48 48c119 0 216 98 216 217v171c0 11-10 21-21 21z m-691-365c-96 0-173 77-173 172v150h148l21-203c4-46 17-89 37-126-10 4-21 7-33 7z m441-463h-386v73h39 308 39c0 0 0-73 0-73z m-64 116h-258c10 35 40 59 78 59h102c38 1 68-26 78-59z m-85 103h-86v103c15-3 28-4 42-4s29 1 44 4v-103z m-44 142c-104 0-196 99-209 225l-25 256h469l-25-256c-14-126-106-225-210-225z m421 274c0-95-77-172-173-172-12 0-23-3-33-8 20 37 33 80 37 127l21 203h148v-150z" horiz-adv-x="1000" />

<glyph glyph-name="user-4" unicode="&#xe86e;" d="M748-150c-37 0-72 0-107 0-4 0-10 7-12 12-17 37-32 74-52 110-19 35-26 35-44-1-20-39-36-80-54-121-36 0-74 0-114 0 4 20 8 40 11 59 20 107 40 214 42 323 0 39 0 77-3 116-4 46-23 72-74 68-26-3-53-8-79-12-9-2-18-5-27-6-26-4-50 9-57 33-7 22-3 49 21 64 70 46 147 76 229 94 59 12 119 17 179 12 74-6 145-23 213-55 30-13 59-29 87-45 26-17 33-46 18-72-14-25-43-31-72-21-28 11-56 22-86 25-38 5-64-13-75-51-10-31-16-64-18-96-4-76 7-151 22-225 15-66 32-131 48-196 2-4 3-9 4-15z m-571 1c-3 24-5 44-8 64-2 0-4 0-5 0-5-18-10-37-15-57-4 1-8 1-12 1-56 9-58 11-57 67 0 33 2 67 3 100 0 10 0 20-2 30-5 28-10 30-36 22-15-5-29-4-39 10-9 13-8 31 3 44 50 57 113 90 187 102 33 5 67 4 100 6 8 0 16-2 24-4 14-4 24-13 24-28 1-18-7-30-23-36-15-5-32-8-47-11-18-4-26-15-29-32-1-9-2-19-2-29-1-52-2-104-2-157 0-24 1-50 3-75 1-13-4-18-17-17-16 0-33 0-50 0z m775 5c-5 22-11 41-15 59-2 0-4 0-6 0-2-20-5-39-8-64-18 0-37-1-57 1-3 0-9 9-9 14 0 23 2 46 2 69 1 56 1 112 0 168 0 11 0 24-5 33-5 9-14 19-23 23-15 6-32 8-48 12-19 6-27 18-26 36 1 15 12 25 31 28 100 12 191-8 270-72 12-10 24-21 34-34 10-12 11-27 2-40-10-14-24-17-37-11-27 12-36 3-39-25-2-16 2-32 2-47 1-39 1-78 0-116 0-6-6-14-10-16-18-7-37-12-58-18z m-292 884c0-65-48-114-111-114-60 0-110 49-110 109 0 63 52 115 115 115 62 0 106-46 106-110z m-519-341c41 0 71-32 71-73 0-38-33-71-69-70-38 0-73 35-72 74 1 35 28 73 70 69z m821-3c37 0 66-30 67-68 0-38-35-73-71-72-37 0-68 32-69 69 0 39 33 71 73 71z" horiz-adv-x="1100" />

<glyph glyph-name="meet" unicode="&#xe86f;" d="M712-145c-4 0-9 0-14 0-2 1-5 3-7 3-29 3-50 17-67 39-3 2-4 7-5 10-29-26-56-36-91-25 3 3 4 5 6 7 18 17 36 34 54 51 4 4 10 8 12 13 4 19 7 37 11 57-5-4-9-7-13-11-33-32-66-63-99-94-14-14-30-23-49-27-26-5-69 11-77 35 2 2 4 4 5 6 51 48 103 97 154 146 33 31 66 62 98 94 11 11 11 22 1 29-12 8-20 2-28-6-81-77-163-156-245-233-40-38-108-24-129 26-4 9-2 14 4 20 51 48 101 96 152 144 40 38 80 76 120 114 8 8 10 17 2 26-9 8-18 7-26 0-3-3-6-5-9-8-81-77-163-154-244-232-5-5-12-9-19-11-30-9-66 2-85 26-26 32-22 67-7 102 5 13 3 20-7 28-30 26-60 53-89 80-20 18-22 34-10 58 13 25 26 50 37 75 50 113 92 228 130 344 6 20 18 33 40 36 5 1 10 3 15 4 67 20 135 40 203 58 28 8 59 16 88 8 78-19 156-39 229-75 5-3 12-4 18-3 72 8 143 2 214-14 8-2 12-5 14-14 4-20 10-40 16-60 37-122 90-238 147-352 6-11 5-17-5-24-14-11-27-22-41-34 3-5 6-9 8-13 38-57 11-131-55-151-14-4-17-10-17-23 0-44-29-78-74-85-9-2-19-3-29-4-1-36-12-66-48-81-33-15-66-6-99 7-3-4-5-8-7-11-14-26-37-43-66-50-6-2-11-3-17-5z m-560 345c5 5 9 8 12 11 121 119 242 239 362 357 5 4 10 9 15 10 21 2 42 2 63 3 9 0 17-2 27-3 0 18 0 33 0 49 0 12 9 19 21 18 14-1 19-8 19-24-2-67 13-129 51-185 15-23 34-41 61-49 40-11 77 8 83 43 2 12 0 25-3 37-15 71-40 139-70 207-14 29-34 49-63 64-53 26-111 39-166 58-44 15-85 14-128 2-70-19-140-40-210-60-5-1-9-8-11-13-14-42-28-84-43-126-36-100-75-198-123-293-2-3-2-11 0-13 34-31 68-61 103-93z m590-130c-1-13 4-26 14-38 12-15 23-31 34-47 15-23 38-33 64-38 23-3 39 3 47 19 10 17 8 44-4 58-19 23-40 46-58 69-11 14-25 20-41 24-34 7-56-10-56-47z m119 68c3-7 5-14 9-19 20-24 40-47 59-70 3-4 8-7 13-8 23-8 48-2 60 15 13 17 14 52-3 68-16 15-28 31-42 48-14 16-41 22-62 14-20-7-32-24-34-48z m-157-241c26 0 50 16 58 41 1 6 0 15-4 21-11 18-24 35-37 51-5 5-13 9-20 9-34 0-61-30-60-62 0-33 30-61 63-60z m396 306c0 29-22 55-50 60-31 5-60-11-71-40-3-8-2-14 4-21 16-18 31-36 47-54 4-3 11-6 16-5 30 3 54 29 54 60z" horiz-adv-x="1166" />

<glyph glyph-name="more-arrow" unicode="&#xe870;" d="M661 835c-20 20-52 20-72 0-19-19-19-52 0-71l364-363h-898c-28 0-51-22-51-51 0-27 23-51 51-51h898l-364-362c-19-20-19-53 0-72 20-20 52-20 72 0l450 450c20 19 20 52 0 71l-450 449z" horiz-adv-x="1126" />

<glyph glyph-name="news-1" unicode="&#xe871;" d="M1166 680v166h-1162v-913c0-46 38-83 83-83h1120c69 0 125 55 125 124v706h-166z m-83-747h-996v830h996v-830z m-913 664h830v-83h-830v83z m498-166h332v-83h-332v83z m0-166h332v-83h-332v83z m0-166h249v-83h-249v83z m-498 332h415v-415h-415v415z" horiz-adv-x="1332" />

<glyph glyph-name="photo" unicode="&#xe872;" d="M103 650h-100v-700c0-55 45-100 100-100h808v100h-808v700z m909 200h-708c-56 0-100-45-100-100v-600c0-55 44-100 100-100h708c55 0 100 45 100 100v600c0 55-45 100-100 100z m-708-700l151 200 101-136 255 186 201-250h-708z" horiz-adv-x="1114" />

<glyph glyph-name="video" unicode="&#xe873;" d="M934 600c-138 239-442 321-679 183-238-138-320-444-182-683 137-239 441-321 679-183 238 138 319 444 182 683z m-232-596c-190-111-433-45-543 146-110 191-45 436 145 546 191 111 434 45 544-146 109-191 44-436-146-546z m-20 366l-260 153c-24 14-43 3-43-25l2-303c0-27 19-38 43-25l258 150c24 14 24 36 0 50z" horiz-adv-x="1000" />

<glyph glyph-name="share1" unicode="&#xe874;" d="M763 208c-57 0-109-27-141-70l-275 154c7 18 10 38 10 59 0 20-3 40-10 59l274 153c33-43 84-70 142-70 98 0 178 80 178 178s-80 178-178 178-178-80-178-178c0-21 3-41 10-59l-274-153c-33 43-84 70-142 70-98 0-178-80-178-178s80-179 178-179c58 0 109 28 142 71l274-154c-7-18-10-38-10-59 0-98 80-178 178-178s178 80 178 178-80 178-178 178z m0 585c68 0 123-55 123-123s-55-122-123-122-123 55-123 122 56 123 123 123z m-584-565c-68 0-123 55-123 123s55 122 123 122 123-55 123-122-55-123-123-123z m584-321c-68 0-123 55-123 123s55 123 123 123 123-55 123-123-56-123-123-123z" horiz-adv-x="942" />

<glyph glyph-name="share2" unicode="&#xe875;" d="M500 848c-275 0-498-223-498-498s223-498 498-498 498 223 498 498-223 498-498 498z m0-931c-239 0-433 194-433 433s194 433 433 433 433-194 433-433-194-433-433-433z m133 363c-29 0-56-13-75-35l-135 75c3 9 4 19 4 28 0 10-1 19-4 29l135 75c18-22 45-35 75-35 54 0 98 44 98 98s-44 98-98 98-98-44-98-98c0-9 1-19 4-28l-135-75c-19 22-46 35-75 35-54 0-98-44-98-98 0-54 44-98 98-98 29 0 56 12 75 35l135-76c-3-9-4-19-4-28 0-54 44-98 98-98s98 44 98 98-44 98-98 98z m-59-98c0 32 27 58 59 58 32 0 59-26 59-58 0-33-27-59-59-59-32 0-59 26-59 59z m117 333c0-32-26-58-58-58-33 0-59 26-59 58s26 59 59 59c32 0 58-27 58-59z m-303-166c0-33-27-59-59-59s-59 26-59 59c0 32 27 58 59 58s59-26 59-58z" horiz-adv-x="1000" />

<glyph glyph-name="left-fill-arrow" unicode="&#xe876;" d="M0 350l667-500v1000l-667-500z" horiz-adv-x="667" />

<glyph glyph-name="icon-date-of-birth" unicode="&#xe877;" d="M760 150c-41 31-59 33-97-2-20-18-38-38-59-54-29-23-49-23-78 1-22 18-42 39-63 58-33 29-54 29-87 0-21-18-40-38-61-56-31-26-53-26-84-1-17 14-32 30-48 45-13 12-26 25-44 31-29 10-68-19-63-49 8-53 20-106 24-160 5-58 29-97 87-113 172 0 344 0 516 0 41 13 71 36 80 80 6 35 6 73 17 106 18 51-1 83-40 114z m122 197c-4 62-43 95-106 95-111 0-222 0-333 0-114 0-229 0-343 0-47-1-87-34-93-79-7-51-8-102-5-153 1-15 4-30 12-43 7-13 17-18 28-1 10 17 26 30 41 43 32 26 56 26 87-1 18-14 33-31 49-46 45-41 64-41 108 1 17 16 33 33 51 47 31 25 52 25 83 0 22-18 41-39 63-58 31-28 51-28 83 0 20 17 38 37 58 54 35 30 59 30 93 1 19-17 36-35 55-52 12-11 27-28 44-21 17 7 18 29 21 46 10 55 7 111 4 167z m-695 199c0-68 0-68 68-65 13 0 17 4 17 17-1 26 0 53 0 80 0 12 0 25 0 37 0 68 0 68-69 64-13-1-17-5-17-18 1-38 1-76 1-115z m446 133c-12-1-16-4-16-16 0-28 0-55 0-83 0-12 0-25 0-37 0-64 0-63 64-62 17 0 20 6 19 21 0 38 0 76 0 115 0 67 0 67-67 62z m-232-98c0-13 0-26 0-40 0-64 0-63 65-61 14 1 17 5 17 18 0 40 0 80 0 119 0 66 0 65-65 62-14-1-18-5-17-18 1-26 0-53 0-80z m-192 136c14-9 29-10 41 1 18 15 26 34 19 58-8 26-22 49-40 73-17-23-31-46-39-72-7-23 1-48 19-60z m429 0c12-9 27-9 39-1 21 13 25 34 21 57-2 8-4 16-8 23-9 17-19 34-30 54-20-24-33-47-41-72-7-23-2-45 19-61z m-197-6c25 0 43 21 42 52-1 30-20 54-35 78-3 6-7 8-11 2-16-26-34-50-36-74 0-37 17-58 40-58z" horiz-adv-x="885" />

<glyph glyph-name="icon-position" unicode="&#xe878;" d="M341-27c-25 10-51 10-76 13-8 14-8 28-1 41 5 12 12 23 19 34 11 17 19 36 23 56 8 37 24 70 48 99 1 1 2 3 4 6-3 2-7 4-10 6-10-6-20-13-30-19-16-9-21-8-35 4-5 3-9 7-15 12-1-7-2-13-2-18-1-10-5-15-14-18-15-5-30-10-47-16-8-24-18-49-18-76 0-40-1-80 0-120 1-37 18-67 40-95 3-4 6-8 8-11-2-12-9-17-19-18-12-2-23-3-35-3-14-1-22 5-25 19-2 8-4 16-4 24 0 21-4 41-10 61-9 26-16 53-22 80-7 31 0 63 2 94 3 55 1 110-11 163-4 18-6 36-3 55 1 11 2 22 3 33-50 26-70 74-95 118-6 11-10 23-16 36 5 11 10 24 17 35 20 33 41 65 61 97 9 15 22 25 39 28 11 2 22 6 33 7 14 2 20 11 23 23 1 7 3 13 4 20-16 8-17 20-15 35 2 24 10 43 27 60 13 13 27 15 43 9 28-12 44-45 36-75-5-17-12-34-18-51-5-13-8-26 0-41 8-4 17-10 28-14 16-6 25-17 30-34 8-30 17-59 25-88 3-13 4-27 4-40 0-40-4-79-15-118 3-3 7-6 10-9 42-31 73-69 102-112 7-10 8-21 6-33-8-41-26-78-51-111-15-19-27-40-40-60-9-14-7-26 5-38 12-13 25-22 40-31 10-7 15-15 10-27-3-1-6-2-11-3 22-21 31-46 19-75-7-16-19-27-35-33-31-11-67 4-79 35-12 27-3 68 43 84z m15 226c-18-20-28-40-34-64-7-33-18-64-37-92-3-3-4-8-6-13 19-1 36 2 52 8 2 18 10 33 19 47 12 17 24 34 36 50 11 15 21 31 28 50-22-1-41 2-58 14z m-96 590c-14 16-24 22-42 26-16 2-24-1-30-15-3-7-4-15-6-22-3-1-6-2-9-3 0-4-1-8-1-12 0-1 1-2 1-3 15-12 16-14 12-33-3-9-6-18-10-29 16-13 31-26 47-40 6 5 11 9 16 13-1 6-2 12-3 18-1 6-1 11-2 17-37 6-39 7-36 19 9-2 17-5 27-6 5 0 13 3 15 6 9 21 18 42 21 64z m-229-219c-5-8-7-12-10-17-8-11-9-23-3-36 15-31 32-61 52-90 12-16 25-29 44-37 7-2 13-7 19-11 9-6 34-3 41 4 2 2 3 4 4 6 5 14 2 25-13 29-13 4-26 6-40 7-18 0-31 9-40 23-15 23-27 46-32 74-3 12-6 22 6 32-10 7-18 11-28 16z m101-470c-5-25-5-50 1-74 10-38 21-77 32-116 8 5 15 10 22 14-2 10-6 18-7 27-2 25-2 49-3 74-1 21 0 43 0 64-16 5-30 8-45 11z m259 206c-38-6-62-27-82-55 22-10 49-6 64-30 17-2 33-3 50-4 5 15 11 27 2 40-11 16-23 32-34 49z m-3-352c-10-3-17-5-24-8-5 7-9 12-13 17-11 1-19-2-26-9 0-7 0-14 0-22-7-3-14-5-22-8 0-8 0-17 0-26 8-3 15-5 22-7 0-8 0-16 0-25 9-3 18-5 26-8 6 7 10 13 15 19 7-2 14-5 20-7 9 7 15 14 17 24-5 6-9 12-13 18 5 6 9 12 15 20-6 7-11 14-17 22z m-86 566c0-3-1-5-1-8 3-23-1-46-7-69-2-9-2-19-4-28-1-7 1-13 7-17 4-2 8-4 14-7 14 47 17 95 14 147-9-7-15-12-23-18z m-199-76c2 1 3 1 4 2-5 34-10 68-14 100-12-3-22-6-32-9 5-34 19-66 42-93z m75-322c5 16 9 32 14 48-20 0-38 0-57 0 0-13 0-26 0-38 13-8 26-11 43-10z m183-231c-9 2-16 5-24 7 0 9 0 17 0 27 7 2 15 5 24 8 5-7 10-13 15-21-4-7-9-13-15-21z" horiz-adv-x="440" />

<glyph glyph-name="location-3" unicode="&#xe879;" d="M775 103c-14 17-33 30-53 41-32 16-66 26-101 34-27 5-54 9-81 12-2 1-4 1-6 0-5-5-9-10-14-15 0 0 1 0 1 0 21-3 41-6 62-10 32-7 63-16 92-32 16-8 31-19 43-34 14-19 15-39 4-59-8-14-19-25-31-34-28-21-59-33-91-43-49-15-98-22-149-25-36-3-73-2-109 0-38 3-75 8-112 17-35 8-69 19-100 37-19 11-37 24-49 43-16 23-14 48 5 69 10 11 22 20 35 27 36 20 75 30 116 37 14 3 29 5 43 7-4 4-8 9-12 13-2 2-4 3-6 2-10-1-19-2-29-3-38-5-75-13-111-25-29-10-57-23-81-43-18-15-32-34-38-57-3-13-3-25-2-38 2-7 4-15 6-22 10-25 27-45 48-61 34-28 75-45 117-59 60-19 123-28 187-31 51-2 102 0 154 6 44 6 88 15 130 30 34 11 65 26 94 47 22 15 40 34 52 58 6 13 10 26 11 39 0 1 0 2 0 3 0 26-8 49-25 69z m-624 379c18-52 42-101 66-149 45-88 95-173 147-257 12-18 23-37 35-56 1 2 2 2 2 3 63 99 123 199 177 303 28 53 54 107 73 164 7 20 14 41 15 63 3 39-2 77-13 114-17 56-48 102-96 135-46 33-98 47-154 48-31 1-62-4-91-14-52-16-95-45-127-90-40-55-53-117-53-184 1-28 10-54 19-80z m249 187c51 0 92-41 92-93 0-51-42-93-93-93-51 1-92 42-92 94 0 51 41 92 93 92z" horiz-adv-x="800" />

<glyph glyph-name="time" unicode="&#xe87a;" d="M744-4c24-27 47-53 70-80 18-20 18-41 0-56-16-15-39-12-56 7-26 29-52 59-78 89-18-7-34-14-52-20-97-33-193-30-287 12-18 7-27 5-39-9-20-25-42-49-63-72-16-18-36-21-52-8-18 15-21 38-4 57 23 27 47 54 71 81-203 161-203 451-31 611 164 152 415 148 571-19 149-160 153-430-50-593z m82 318c1 181-144 327-324 329-177 2-329-146-328-326 0-185 153-328 325-327 179 0 327 145 327 324z m-325 536c21 0 43 0 64 0 23-1 38-15 38-37 0-22-15-37-37-38-44 0-89 0-133 0-22 1-37 16-38 37 0 22 16 37 39 38 23 0 45 0 67 0z m-392-274c-21 0-33 8-40 22-7 14-5 29 6 40 29 30 58 59 88 88 16 15 36 15 51 0 15-15 17-36 1-53-29-29-58-58-88-87-6-5-14-8-18-10z m787-2c-9 5-19 8-26 15-28 27-56 54-83 82-17 18-17 39-2 54 17 16 37 16 55-2 28-28 55-55 83-83 11-12 15-26 8-41-6-14-17-23-35-25z m-358-232c37 0 72 1 106 0 11-1 25-6 34-13 11-8 13-22 8-36-5-16-16-25-32-25-53-1-105-1-157 0-21 0-35 15-35 36 0 65 0 130 0 195 1 23 17 37 39 37 22-1 36-16 37-40 0-44 0-88 0-132 0-7 0-13 0-22z" horiz-adv-x="1000" />

<glyph glyph-name="video-transparent" unicode="&#xe87b;" d="M500 846c-274 0-496-222-496-496s222-496 496-496 496 222 496 496-222 496-496 496z m-132-720v448l331-224-331-224z" horiz-adv-x="1000" />

<glyph glyph-name="icon-allrounder" unicode="&#xe87c;" d="M654 220c47 89 93 178 140 268 6 13 6 16-5 27-6 6-11 12-17 18-6 6-6 11-2 18 8 14 14 28 21 41 31 59 62 118 92 176 8 17 7 22-10 31-11 6-22 12-34 17-20 11-24 10-35-10-33-65-67-130-101-195-16-31-16-31-49-25-17 3-19 2-27-13-55-105-109-210-164-315-29-55-58-111-87-166-14-29-6-56 22-71 25-13 49-26 74-39 28-14 56-5 70 23 13 23 25 46 37 70l75 145z m61 11c15 5 30 5 43 1-18-13-34-28-48-44-16-18-29-38-39-60-2 4-4 8-5 12-12 38 10 79 49 91l0 0z m-36-113l-4 2c1 1 2 3 2 4l5-2c-1-1-2-3-3-4z m7 12l-4 2c1 3 3 5 4 8l4-3c-1-2-3-5-4-7z m9 15l-4 2c2 3 3 5 5 8l4-3c-2-2-3-5-5-7z m10 14l-4 3c2 2 4 5 5 7l4-3c-1-2-3-4-5-7z m11 14l-4 3c2 2 3 4 5 6l1 1 4-3-2-2c-1-1-3-3-4-5z m12 14l-4 3c2 2 5 4 7 6l3-3c-2-2-4-4-6-6z m12 12l-3 4c2 2 4 4 7 6l3-4c-2-2-4-4-7-6z m14 12l-3 3c2 2 4 4 7 6l3-4c-3-1-5-3-7-5z m14 11l-3 4 3 3 3-4-3-3z m-45-44m-32-72l-4 2c0 2 1 3 2 5l4-2c-1-2-1-3-2-5z m6 13l-4 2c1 3 3 6 4 9l4-3c-1-3-3-5-4-8z m9 16l-4 2c2 3 3 6 5 8l4-2c-2-3-4-5-5-8z m10 15l-4 3c2 3 4 5 6 8l3-3c-1-3-3-5-5-8z m11 15l-4 3c2 2 4 4 6 6l0 1 4-3-1-1c-1-2-3-4-5-6z m12 14l-3 3c2 2 4 4 7 7l3-4c-2-2-5-4-7-6z m13 13l-3 3c2 2 5 5 7 7l3-4c-2-2-4-4-7-6z m14 12l-3 3c2 2 5 4 7 6l3-4c-2-1-5-3-7-5z m15 11l-3 4c1 1 3 2 4 3l3-4c-2-1-3-2-4-3z m-49-48m59 45c1-1 2-2 3-4 6-6 10-14 13-23 12-39-10-80-49-92-21-7-42-4-60 7-1 0-1 1-2 1 10 23 24 44 40 63 16 18 34 34 55 48l0 0z m-454 498l30 0c10 12 22 15 34 2 13 12 23 15 35 2 5 10 23 13 33-2 0 10 27 12 35 0l27 0 0-28c-10 0-20-2-30-2-12-15-25-12-37-2-3-10-23-13-30 0-10-10-20-13-33 2-12-12-25-15-37 0l-27 0 0 28z m-196-2l30 0c10 12 22 15 35 2 12 12 22 15 35 2 5 10 22 13 32-2 0 10 27 12 35 0l27 0 0-28c-10 0-20-2-30-2-12-15-25-12-37-2-3-10-23-13-30 0-10-10-20-13-32 2-13-12-25-15-38 0l-27 0 0 28z m87-114c1 2 1 4 1 6l0 28c0 26-22 49-49 49 0 0 0 0 0 0l-12-1c-15 0-29-6-40-16-10-11-16-25-16-40l0-20c0-2 0-3 1-5-1-1-1-3-1-5l0-328 0-302c0-2 1-4 2-6l45-74c2-3 6-3 9-3 0 0 1 0 1 0 3 0 7 0 9 3l50 73c1 2 2 4 2 7l-1 630c0 1-1 3-1 4z m-82 49c6 7 14 11 23 11l11 0c0 0 0 0 0 0 14 0 25-13 25-27v-16l-68 0v8c0 9 2 18 9 24z m23-738l-35 57 0 617 72 0 1-616-38-58z m357 43l-27-42-33 57v0c-7 4-16 8-24 12l0-15c0-2 0-4 1-6l45-74c2-3 5-3 9-3 0 0 0 0 0 0 4 0 7 0 9 3l50 73c1 1 1 3 1 4-9-5-20-8-31-9z m-86 397l23 43 0 191 72 0 0-52 22 43 0 20c0 2 0 3-1 4 1 2 2 4 2 6l0 27c0 27-23 49-49 49 0 0 0 0 0 0l-12 0c-15 0-29-6-40-17-11-11-16-25-16-40l0-20c0-1 0-3 1-4-1-2-2-3-2-5l0-245z m26 274c0 9 2 18 9 24s13 10 22 10l12 1c0 0 0 0 0 0 14 0 25-14 25-27v-17l-68 0v9z m-91-609c-2 0-3 1-4 2l0-49-38-57-34 57-1 616 73 0 0-368c7 15 15 29 22 43l0 336c0 1 0 3-1 4 1 2 1 4 1 6l0 28c0 26-22 49-48 49 0 0 0 0 0 0l-13-1c-15 0-29-6-39-16-11-11-17-25-17-40l0-20c0-2 1-3 1-5 0-1-1-3-1-5l0-328 1-302c0-2 0-4 1-6l45-74c2-3 6-3 10-3 0 0 0 0 0 0 4 0 7 0 9 3l50 73c1 2 2 4 2 7l0 40c-7 3-13 6-19 10z m-73 609c0 9 2 18 8 24s14 11 23 11l12 0c0 0 0 0 0 0 13 0 24-13 24-27v-16l-67 0v8z m404-77c3 7 7 3 9 1 3-3 12-2 7-9-9-13-19-26-29-39 0 0-1 1-2 1 5 15 11 30 15 46z" horiz-adv-x="1000" />

<glyph glyph-name="location-2" unicode="&#xe87d;" d="M767 117c0 0 0 0 1 0 0-46 0-92 0-138 0-2-1-3-3-3-203 0-407 0-610 0-2 0-3 1-3 3 0 46 0 92 0 138 2-2 0-4 2-6 1-1 1-2 2-3 3-17 11-31 22-44 14-16 32-28 50-37 41-22 86-33 131-41 16-2 31-4 46-5 11-1 21-2 31-2 7 1 14 0 20 0 16 0 32 0 48 1 35 2 69 7 103 16 31 7 60 17 87 32 16 8 30 18 43 31 14 14 25 31 28 52 0 2-1 4 2 6z m0 0c-1-11-4-21-9-30-9-19-23-33-40-45-22-16-46-27-72-36-32-11-66-18-100-23-39-5-79-6-118-4-49 2-97 9-143 24-33 10-64 23-90 44-16 13-29 28-36 47-3 6-4 12-5 17-1 10-1 20 1 29 5 18 15 32 29 44 19 16 40 25 62 33 28 10 57 15 86 19 7 1 14 2 22 3 2 0 3 0 4-2 3-3 7-7 10-10-11-1-22-3-33-5-31-6-61-13-89-29-10-5-19-12-27-20-14-16-16-36-4-53 10-15 23-25 38-33 24-14 50-22 77-29 28-6 57-10 86-12 28-2 56-2 84-1 38 3 76 8 113 20 25 7 49 17 70 32 10 8 18 16 24 26 9 16 8 32-3 46-9 12-20 20-33 26-22 12-46 19-71 24-15 4-31 6-47 8 0 0-1 0 0 0 3 4 7 8 10 11 1 2 3 1 5 1 21-2 41-5 62-10 27-6 53-13 77-26 16-8 30-18 41-31 13-15 20-33 19-53 0-1 0-1 0-2z m-113 488c-12 43-36 78-73 104-35 24-75 35-118 36-24 1-48-3-70-10-40-13-73-35-97-69-31-42-41-90-41-142 0-21 7-41 14-61 14-40 32-78 51-115 35-67 73-132 113-197 9-14 18-28 27-42 1 1 1 1 1 2 49 75 95 152 136 232 21 41 41 82 56 126 5 16 10 32 12 48 2 30-2 59-11 88z m-194-141c-40 0-71 32-71 72 0 39 32 71 71 71 40-1 71-32 71-72 0-39-32-71-71-71z" horiz-adv-x="1000" />

<glyph glyph-name="icon-batsman" unicode="&#xe87e;" d="M978 787c-13 12-25 25-38 37-22 23-28 23-50 0-71-71-143-142-214-213-33-34-33-34-75-12-20 11-24 10-40-7-115-115-231-230-346-345-61-60-122-121-183-182-31-31-31-71 0-102 27-27 54-54 81-81 31-31 71-31 102 0 25 26 51 51 77 77l158 158c98 98 196 196 294 294 14 14 14 20 5 37-5 10-9 21-15 31-5 10-4 18 5 25 16 15 30 30 45 45 64 64 129 129 193 193 19 19 18 27 1 45z m-414-692c22 0 41-7 58-18-29-10-56-22-81-37-28-17-54-38-77-62-1 5-1 11-1 17 0 55 45 100 101 100l0 0z m-93-135l-5 5c2 2 3 3 5 5l5-5c-2-2-3-3-5-5z m14 13l-5 5c3 3 6 6 10 8l4-5c-3-2-6-5-9-8z m18 16l-4 5c3 3 6 6 9 8l4-5c-3-3-6-5-9-8z m19 15l-4 6c4 2 7 5 10 7l4-5c-3-3-6-5-10-8z m20 14l-3 6c2 1 5 3 8 5l2 1 4-5-3-2c-3-2-5-3-8-5z m21 13l-3 5c4 2 8 4 11 6l3-6c-4-2-7-4-11-5z m22 11l-3 6c4 1 8 3 12 5l2-6c-4-2-7-4-11-5z m22 10l-2 6c3 1 7 3 11 4l2-6c-3-1-7-3-11-4z m23 9l-2 6 6 2 2-6-6-2z m-77-40m-71-80l-5 4c1 2 3 3 4 5l5-4c-1-2-3-4-4-5z m13 14l-5 4c3 3 6 6 10 9l4-4c-3-3-6-6-9-9z m18 17l-4 5c3 3 6 6 10 8l4-5c-3-3-7-5-10-8z m20 16l-4 5c3 3 7 5 10 8l4-5c-3-3-7-6-10-8z m20 14l-3 6c3 2 6 4 9 6l2 1 3-6-1-1c-3-2-6-4-10-6z m22 13l-3 6c3 2 7 4 11 6l3-6c-4-2-7-4-11-6z m23 12l-3 6c4 2 8 4 12 5l2-6c-4-2-8-3-11-5z m23 10l-3 6c4 2 8 3 12 5l3-7c-5-1-8-2-12-4z m23 9l-2 6c2 1 5 2 7 2l2-6c-2-1-5-1-7-2z m-83-43m95 35c1-2 2-5 3-7 5-11 7-23 7-36 0-55-45-100-102-100-30 0-57 13-76 34-1 1-2 2-2 3 23 25 49 47 79 65 28 17 58 31 91 41l0 0z m15 456l-336-332c-4-5-9-9-15-9-6-1-8-3-13 1-11 6-7 16 1 25l336 332c2 1 3 3 5 4 1 1 1 2 2 4 4 5 7 4 9 2 4 1 9 1 14-2 10-7 6-16-3-25z" horiz-adv-x="1000" />

<glyph glyph-name="cleansheets" unicode="&#xe87f;" d="M135-66c-1 32 8 60 17 88 14 45 26 92 39 138 1 2 2 5 1 6-7 21 1 41 7 60 3 8 3 18 4 26-1 1-2 2-4 3-11-8-25-15-35-25-26-27-63-38-96-25-36 14-57 45-59 84-2 42 28 82 81 82 24-1 48-2 67-18 13 16 16 34 5 46-18 20-26 44-38 67-15 31-8 62 20 87 10 8 21 15 32 22 6 4 9 6 6 13-7 19-14 38-22 57-5 14-11 28-14 42-4 21 3 40 19 55 25 24 56 28 88 22 25-5 44-36 45-65 0-5 3-12 6-17 10-13 9-29 10-44 0-15 0-14 14-12 11 2 23 0 35-1 5 0 10-1 14-1 38 3 75 4 112 8 32 4 65 7 95 17 55 18 111 28 167 41 33 8 65 21 97 32 45 16 87 12 126-17 7-6 11-15 16-22 0-1-1-3-2-4-5 1-10 2-15 3-17 5-35 12-52 16-12 2-23-1-30-12 8-3 16-6 23-9 3-2 7-5 7-8 0-3-3-8-6-9-17-7-34-14-52-10-37 10-72 5-107-9-4-2-8-3-12-6-44-30-94-42-145-52-45-8-88-20-130-37-4-2-8-4-12-6-20-8-31-19-28-44 4-26-2-54 0-80 1-27 7-53 12-79 16-70 46-133 80-195 20-37 41-72 61-108 16-30 30-61 46-91 1-2 1-4 3-8-3 0-6 0-8 0-40 0-79 0-119 0-3 0-7-1-8 1-11 11-22 13-36 4-7-4-15 1-20 7-27 29-54 57-81 86-9 9-20 10-27 0-15-21-29-43-42-65-2-3 0-9-2-12-3-5-7-12-12-14-46-16-93-2-141-8z" horiz-adv-x="1000" />

<glyph glyph-name="calendar-2" unicode="&#xe880;" d="M499-48c-141 0-282 1-423-1-30 0-59 24-58 58 1 228 0 456 0 683 0 36 21 57 57 57 283 0 567 0 850 0 36 0 57-21 57-57 0-228 0-456 0-685 0-34-21-55-56-55-142 0-284 0-427 0z m-419 64c281 0 560 0 840 0 0 146 0 292 0 438-280 0-560 0-840 0 0-146 0-292 0-438z m840 669c-280 0-560 0-840 0 0-56 0-110 0-165 281 0 560 0 840 0 0 55 0 110 0 165z m-138-84c0-24-17-40-41-40-25 0-41 17-41 41 0 23 18 41 41 42 22 0 41-19 41-43z m-524-39c-24-1-41 15-41 39 0 24 18 43 41 43 22 0 40-18 41-42 0-24-16-40-41-40z" horiz-adv-x="1000" />

<glyph glyph-name="captain" unicode="&#xe881;" d="M982 659c-4-74-218-133-482-133-264 0-478 59-482 133 0-1 0-1 0-2v-523c0-51 216-93 482-93s482 42 482 93v523c0 1 0 1 0 2z m-742-399l-45 27-48-22 11 51-35 39 52 5 26 46 21-49 51-10-39-34 6-53z m368-75c-8-6-16-11-25-16-9-4-19-7-30-10-10-2-23-3-36-3-20 0-39 4-56 11s-33 17-45 30c-13 13-23 28-30 45-7 17-11 36-11 56v0c0 20 4 38 11 56 7 17 17 32 30 45 12 13 27 23 45 31 18 7 37 11 58 11 13 0 25-1 36-3 10-2 20-5 29-9 8-3 16-8 24-13 7-5 14-11 20-17l-39-45c-10 10-21 17-33 23-11 6-23 8-37 8-12 0-23-2-32-6-10-5-19-11-26-19-7-8-12-17-16-27-4-11-6-22-6-34v0c0-12 2-23 6-34 4-11 9-20 16-28 7-8 15-14 25-18 10-5 21-7 33-7 16 0 29 3 40 8 11 6 22 14 33 24l38-39c-7-7-14-14-22-20z m286 75l-45 27-48-22 12 51-36 39 52 5 26 46 21-49 52-10-40-34 6-53z" horiz-adv-x="1000" />

<glyph glyph-name="close" unicode="&#xe882;" d="M591 350l362 362c25 25 25 66 0 91-25 25-66 25-91 0l-362-362-362 362c-25 25-66 25-91 0-25-25-25-66 0-91l362-362-362-362c-25-25-25-66 0-91 13-13 29-19 45-19s33 7 46 19l362 362 362-362c13-13 29-19 46-19 16 0 32 7 45 19 25 25 25 66 0 91l-362 362z" horiz-adv-x="1000" />

<glyph glyph-name="download-pdf" unicode="&#xe883;" d="M620 805c0-118 0-236 0-357 38 0 75 0 118 0-80-121-158-237-238-357-80 119-157 236-238 356 42 0 79 0 118 0 0 121 0 240 0 358 80 0 160 0 240 0z" horiz-adv-x="1000" />

<glyph glyph-name="jersy" unicode="&#xe884;" d="M987 432c-86 152-214 276-343 336-2-8-6-17-9-24-1-3-2-5-4-7-1-3-3-5-3-5l0 0c-10-17-19-25-19-25v0c-26-25-66-41-109-41h0l0 0h0c-44 0-83 16-109 41v0c0 0-10 8-20 25l0 0c0 0-1 2-3 5-1 2-2 5-3 7-4 7-8 17-9 24-129-60-257-184-343-336l-6-10 223-113v-377h270l0 0h270v378l223 112-6 10z m-67-22l-150-76v209l-22 15v-326h0v-278h-248l0 0h-248v278h0v326l-22-13v-211l-150 76-42 22c80 138 188 245 306 303 0-1 1-1 1-2 3-6 15-28 33-45 31-27 74-44 122-44h0l0 0h0c48 0 91 17 121 44 18 17 30 39 33 45 1 1 1 1 1 2 118-58 226-165 307-304l-42-21z m-420 190c-149 0-204 120-204 122l20 9c2-5 50-108 184-108 135 0 187 104 189 108l20-10c-2-5-60-121-209-121z m-157 78c-31-22-75-60-113-115v-43c40 72 94 118 129 142l-16 16z m318-2l-15-17c34-25 85-70 124-139v42c-36 54-78 91-109 114z" horiz-adv-x="1000" />

<glyph glyph-name="mail-1" unicode="&#xe885;" d="M880 727h-760c-53 0-96-43-96-96v-562c0-53 43-96 96-96h761c53 0 96 43 96 96v562c-1 53-44 96-97 96z m46-572l-238 228 238 172v-400z m-806 522h761c25 0 45-21 45-46v-13l-426-309-426 308v14c0 25 20 46 46 46z m192-294l-238-228v400l238-172z m568-360h-760c-25 0-46 21-46 46v16l280 268 146-106 146 106 280-268v-16c0-25-20-46-46-46z" horiz-adv-x="1000" />

<glyph glyph-name="refresh-2" unicode="&#xe886;" d="M502 88c-149 0-269 121-269 269h68c21 0 26 11 12 24l-58 58-58 59c-14 13-37 13-52 0l-57-57-58-59c-15-13-9-24 11-24h65c0-220 178-398 396-398 109 0 210 45 280 117l-89 89c-48-48-117-78-191-78z m457 256h-65c0 218-178 396-398 396-109 0-208-44-280-115l91-91c48 48 115 80 189 80 149 0 270-121 270-269h-69c-19 0-24-13-9-26l57-58 58-59c15-13 37-13 52 0l58 59 57 58c15 12 9 25-11 25z" horiz-adv-x="1000" />

<glyph glyph-name="icon-bowler" unicode="&#xe887;" d="M502 848c107 0 204-32 286-86-144-50-279-111-403-188-140-84-267-187-381-308-4 28-7 57-7 87 0 274 225 495 505 495l0 0z m-464-667l-23 23c8 8 16 16 24 23l22-24c-7-7-15-14-23-22z m68 64l-22 24c15 14 30 27 46 41l21-25c-15-13-30-26-45-40z m91 80l-21 25c16 13 32 26 48 39l20-26c-16-13-31-25-47-38z m96 74l-20 27c17 12 34 24 50 35l19-27c-17-11-33-23-49-35z m99 69l-17 28c13 8 26 16 39 25l13 8 17-28-13-8c-13-8-26-16-39-25z m104 62l-16 29c18 10 36 19 55 29l15-30c-18-9-36-18-54-28z m108 55l-14 30c19 8 38 17 56 25l14-30c-19-8-37-16-56-25z m111 49l-12 30c19 8 38 16 56 24l13-31c-19-7-38-15-57-23z m-269-150m-354-401l-24 22c7 8 14 17 22 25l24-22c-8-8-15-16-22-25z m65 70l-24 23c15 15 30 30 46 45l22-24c-15-14-30-29-44-44z m91 86l-22 25c16 14 33 28 49 41l21-25c-17-14-32-27-48-41z m97 79l-20 26c17 13 35 26 52 38l19-27c-17-12-34-24-51-37z m103 72l-18 28c16 10 32 20 48 29l6 4 17-28-6-4c-16-9-32-19-47-29z m107 65l-16 29c19 10 37 20 56 30l15-29c-18-10-37-20-55-30z m112 57l-14 30c19 9 38 18 58 27l13-30c-20-9-39-18-57-27z m114 51l-12 30c20 8 39 16 59 23l12-31c-20-7-39-14-59-22z m119 44l-11 31c10 3 21 7 31 10l10-31c-10-4-20-7-30-10z m-415-215m473 174c6-10 10-21 15-32 23-56 35-117 35-181 0-274-227-496-506-496-150 0-285 64-377 167-5 4-9 10-14 15 116 128 246 235 392 324 139 85 291 153 455 203l0 0z" horiz-adv-x="1000" />

<glyph glyph-name="icon-international" unicode="&#xe888;" d="M957 165l-376 376v167c0 26-6 53-17 77l-9 17c-10 21-31 35-55 35s-45-14-55-35l-9-18c-11-24-17-50-17-76v-167l-376-376c-19-19-30-45-30-72v-47c0-8 4-15 11-18 6-4 14-3 21 1l382 245c3-62 9-113 15-175l6-64-142-94c-6-4-9-10-9-17v-41c0-6 3-12 8-15 4-4 11-6 17-4l178 39 178-39c1-1 3-1 4-1 5 0 9 2 13 5 5 4 8 9 8 16v40c0 7-4 14-9 17l-142 94 6 64c6 62 11 113 15 175l382-245c6-4 14-4 21-1 6 4 10 11 10 18v47c1 27-10 53-29 72z" horiz-adv-x="1000" />

<glyph glyph-name="icon-star" unicode="&#xe889;" d="M940 504l-266 27c-16 1-31 13-38 29l-95 244c-15 41-69 41-84 0l-94-244c-6-17-22-28-38-29l-266-27c-39-4-55-56-25-84l200-186c13-12 18-30 14-48l-60-260c-9-41 33-75 68-53l221 137c14 9 32 9 46 0l221-138c35-21 77 12 68 53l-59 261c-4 18 1 35 14 47l200 186c29 29 12 81-27 85z" horiz-adv-x="1000" />

<glyph glyph-name="cap" unicode="&#xe88a;" d="M319 119c99-61 196-127 294-189 64-40 134-64 212-62 84 3 159 33 224 84 50 39 94 85 140 129 14 13 27 20 46 20 36-1 73 0 108 0 16 0 29 5 33 21 35 141 46 281-21 417-53 105-144 170-248 218-34 16-67 36-102 51-20 8-41 12-62 14-32 3-63 2-95 5-118 12-229-8-331-73-49-32-66-80-81-131-28-92-58-184-85-276-6-18-17-29-34-38-70-33-140-67-210-102-7-3-13-10-19-14 1-4 1-7 1-10 9-2 18-7 27-6 74 6 142-19 203-58z m87 236c2 10 3 18 5 26 24 81 49 162 73 243 14 47 38 86 84 108 31 15 64 30 98 37 141 31 275 5 407-49 77-31 103-88 106-165 5-106-8-210-27-314-3-20-9-40-14-61-11 2-17 3-23 4-61 19-122 36-183 56-147 48-293 99-450 108-25 1-49 4-76 7z m-309-215c92 13 167-28 247-76-13-12-20-20-29-27-62-44-124-86-205-83-52 3-95 42-98 92-2 43 37 87 85 94z" horiz-adv-x="1415" />

<glyph glyph-name="photos-03" unicode="&#xe88b;" d="M1000 695c0 91-64 155-153 155-231 0-461 0-692 0-90 0-155-64-155-156 0-189 0-378 0-568 0-44-1-89 1-133 2-82 66-143 147-143 118 0 235 0 352 0 119 0 238 0 357 0 71 0 134 56 142 127 2 19 1 39 1 59 0 220 0 439 0 659z m-896 83c10 6 22 9 33 11 8 2 16 1 24 1 228 0 455-1 683 1 62 0 99-44 99-100-1-164 0-329-1-493 0-5 0-10-1-19-7 5-11 8-15 11-38 31-76 63-114 95-13 12-21 13-35 1-51-44-104-88-158-133-109 99-217 197-326 296-77-85-152-169-231-255-1 7-2 12-2 16 0 163 0 325 0 488 0 36 14 63 44 80z m838-774c0-59-38-96-96-96-116-1-231 0-347 0-113 0-226 0-339 0-49 0-81 20-95 61-3 9-4 21-4 31-1 29-1 59 0 88 0 9 4 20 10 27 71 79 142 157 212 236 11 12 17 13 29 2 97-88 194-176 290-264 12-11 19-12 32-1 49 42 99 83 149 125 9 8 15 8 24 0 41-34 83-68 123-103 7-5 12-16 12-25 1-27 1-54 0-81z m-233 405c80 0 145 66 144 145 0 82-65 148-146 148-81 0-148-67-147-146 0-84 65-148 149-147z m-2 235c49-1 88-41 88-91 0-46-40-86-88-86-50 0-88 38-88 89-1 48 39 88 88 88z" horiz-adv-x="1000" />

<glyph glyph-name="pdf" unicode="&#xe88c;" d="M909 233c-1 44-35 76-79 79-11 1-23-1-34 2-3 8-2 17-2 25 0 72 0 145 0 218 0 11-1 20-9 29-76 84-152 169-228 254-6 7-12 10-21 10-137 0-274 0-410 0-4 0-8-1-12-1-63-1-115-59-114-125 2-134 1-267 1-401 0-115 0-231 0-346 0-52 21-91 68-115 21-11 45-12 68-12 173 0 346 0 520 0 9 0 18 1 27 1 65 3 109 62 109 114 0 7-2 15 6 22 10 0 22-1 34 1 42 4 74 36 75 78 2 56 2 111 1 167z m-351 556c61-69 120-134 181-202-62 0-120 0-181 0 0 66 0 131 0 202z m112-906c-180 1-360 2-540-1-55 0-98 38-97 98 2 111 1 221 1 331 0 137 1 273-1 410-1 56 43 97 97 96 124-2 248-1 371-1 8 0 15 2 23-3 0-85 0-171 0-260 79 0 157 0 235 0 0-81 0-160 0-241-27 0-54 0-81 0-88 0-176 1-264 0-47 0-83-24-88-67-6-63-6-127 0-190 5-43 40-68 85-68 74-1 149-1 223-1 41 0 82 0 124 0 13-54-33-104-88-103z m207 197c0-41-20-61-61-61-133 0-267 0-400 0-40 0-60 20-60 60 0 47 0 94 0 141 0 40 20 60 60 60 66 0 133 0 200 0 66 0 132 0 198 0 44 0 63-19 63-63 0-46 0-91 0-137z m-222 133c-24 5-47 2-72 1 0-48 0-94 0-144 21 0 40-1 58 1 24 1 44 11 54 34 9 22 10 45 3 68-5 22-20 35-43 40z m19-105c-16-28-44-21-71-21 0 38 0 74 0 112 26-2 55 8 71-20 13-23 13-48 0-71z m-148 106c-25 2-49 0-75 0 0-48 0-95 0-141 8-4 14-4 22 2 0 17 0 35 0 53 18 2 35-1 52 3 23 4 33 17 34 40 0 25-11 41-33 43z m-10-68c-4 0-8 0-11 0-11 0-21 0-32 0 0 18 0 34 0 51 14 3 29 3 43 1 16-1 23-11 23-25 1-15-7-24-23-27z m295 69c-28 0-56 0-85 0 0-49 0-96 0-144 8-1 14-3 21 4 0 19 0 39 0 61 22 0 42 0 64 0 3 12 3 18-10 18-18-1-35 0-53 0 0 16 0 30 0 45 25 0 49 0 73 0 1 10 1 17-10 16z" horiz-adv-x="910" />

<glyph glyph-name="news-04" unicode="&#xe88d;" d="M1000 480c0 67 0 134 0 201 0 18-15 33-33 33h-104v118c0 6-3 12-8 17-4 5-11 7-17 7-68 0-136 0-204 0-201 0-408 0-612 1-16 0-28-13-29-28l0-4c1-142 1-266 0-380 0-35 0-70 0-106 0-104 0-212 0-318l0-1c0-17 14-31 31-31l1 0c15 1 30 1 44 0 15 0 30 0 45 1l18 0 0-19c0-14 0-27 0-40 1-17 1-35 0-52l0 0c0-20 16-36 35-36 265 1 534 1 799 0h1c18 0 33 15 33 34v0c0 201 0 405 0 603z m-967-429l3 0c1 263 1 524 0 744v4c0 10 8 18 18 18l3 0c198-1 400-1 595-1 50 0 99 0 149 0l2 0c4 0 8-1 11-4 3-3 5-8 5-12v-750c0-11-9-21-21-21-61 0-123 0-185 0-182 0-369 0-554 0h-2c-6 0-11 2-15 6-4 4-6 10-6 15l0 1-3 0z m924 597v-734c0-14-11-25-25-25h-737c-11 0-19 9-19 19v81h646c23 0 41 18 41 41v639h74c11 0 20-10 20-21z m-560 87h-291v-292h291v292z m-249-249v207h207v-207h-207z m612-176c0 4-1 8-1 11 0 5 0 10-1 15l0 6h-659v-39h661l0 7z m-662-148c0-6 0-10 1-15l0-6h660v38h-662l0-7c0-3 0-7 1-10z m643 541c0 9-1 17-2 25l0 6h-265v-39h268l-1 8z" horiz-adv-x="994" />

</font>
</defs>
</svg>
